<svg width="136" height="51" viewBox="0 0 136 51" fill="none" xmlns="http://www.w3.org/2000/svg">
<path d="M2.29592 8.81598C2.33192 9.01998 2.37992 9.18798 2.40392 9.24798C2.43992 9.31998 2.48792 9.36798 2.52392 9.36798C2.60792 9.36798 2.65592 9.28398 2.79992 8.91198C5.07992 8.70798 7.35992 8.43198 10.2999 8.01198C10.5639 8.38398 10.7439 8.65998 11.0919 9.23598C11.1879 9.39198 11.2599 9.45198 11.3559 9.45198C11.5479 9.45198 11.6799 9.07998 11.6799 8.56398C11.6799 8.13198 11.6079 8.03598 10.7919 7.38798C9.96392 6.73998 9.43592 6.37998 8.52392 5.87598L8.42792 6.00798C9.18392 6.69198 9.62792 7.14798 10.0959 7.74798C8.31992 7.90398 6.36392 7.99998 4.65992 8.03598C5.60792 6.76398 5.94392 6.25998 6.83192 4.83198C7.27592 4.77198 7.35992 4.73598 7.35992 4.61598C7.35992 4.49598 7.16792 4.42398 5.96792 4.07598C5.85992 4.57998 5.67992 5.04798 5.15192 6.25998C4.77992 7.08798 4.73192 7.18398 4.28792 8.04798C3.26792 8.07198 2.94392 8.07198 2.83592 8.07198C2.63192 8.07198 2.47592 8.07198 2.15192 8.04798L2.29592 8.81598ZM4.43192 10.352C4.02392 10.088 3.89192 10.004 3.45992 9.77598C3.48392 10.376 3.49592 10.832 3.49592 11.276C3.49592 12.512 3.48392 13.808 3.45992 14.708C3.45992 14.72 3.45992 14.732 3.45992 14.732C3.45992 14.828 3.51992 14.864 3.65192 14.864C3.84392 14.864 4.16792 14.84 4.22792 14.816C4.29992 14.804 4.32392 14.78 4.32392 14.708V14.132H9.67592V14.708C9.68792 14.78 9.71192 14.804 9.78392 14.804C10.1319 14.804 10.4679 14.768 10.5279 14.732C10.5759 14.708 10.5879 14.672 10.5879 14.588C10.5399 13.76 10.5279 12.98 10.5279 11.768C10.5279 11.576 10.5279 11.252 10.5279 10.856C10.8639 10.64 10.9359 10.592 10.9359 10.508C10.9359 10.472 10.8999 10.424 10.8039 10.352C10.4679 10.1 10.3719 10.016 10.0119 9.77598C9.79592 10.016 9.72392 10.088 9.51992 10.352H4.43192ZM4.32392 10.628H9.67592V13.856H4.32392V10.628ZM16.9239 8.03598C16.7919 7.98798 16.7199 7.97598 16.4799 7.93998C16.4079 7.92798 16.2999 7.90398 16.1679 7.89198C16.1559 8.45598 15.9879 9.04398 15.6639 9.70398L15.7719 9.75198C16.1439 9.33198 16.4679 8.80398 16.7199 8.25198C16.8159 8.23998 16.8519 8.22798 16.9239 8.17998V8.31198C16.9239 8.74398 16.8999 9.27198 16.8759 9.72798C16.8879 9.82398 16.9119 9.83598 17.0559 9.83598C17.2359 9.83598 17.4639 9.81198 17.4999 9.78798C17.5119 9.77598 17.5239 9.72798 17.5239 9.65598C17.5119 9.45198 17.5119 9.45198 17.4999 9.13998C17.4879 8.87598 17.4759 8.58798 17.4639 8.28798V7.27998C17.6679 7.24398 17.6799 7.23198 17.7879 7.20798C17.9319 7.18398 17.9319 7.18398 18.0279 7.15998C18.0759 7.26798 18.0999 7.32798 18.1239 7.41198C18.2079 7.69998 18.2439 7.74798 18.3159 7.74798C18.4359 7.74798 18.5679 7.49598 18.5679 7.29198C18.5679 7.11198 18.4959 6.97998 18.3039 6.79998C18.0879 6.59598 17.9079 6.46398 17.7279 6.36798L17.6079 6.43998C17.7759 6.67998 17.8359 6.75198 17.9439 6.99198C17.6439 7.00398 17.4639 7.01598 16.8039 7.02798C17.0079 6.82398 17.8239 5.98398 18.0759 5.71998C18.2919 5.70798 18.3999 5.67198 18.3999 5.58798C18.3999 5.52798 18.2559 5.44398 17.6799 5.17998C17.2959 5.91198 16.8999 6.53598 16.5399 7.02798C16.4439 7.02798 16.3719 7.02798 16.3239 7.03998C16.2159 7.03998 16.1439 7.03998 16.1199 7.03998C16.0479 7.03998 15.9759 7.02798 15.8439 7.01598C16.0239 7.74798 16.0239 7.74798 16.1079 7.74798C16.1679 7.74798 16.2159 7.67598 16.2759 7.48398C16.5159 7.44798 16.5639 7.43598 16.9239 7.37598V8.03598ZM22.6959 8.28798C22.6959 8.71998 22.6719 9.25998 22.6479 9.61998C22.6479 9.67998 22.6599 9.69198 22.7319 9.69198C22.7319 9.69198 22.7439 9.69198 22.7559 9.69198C22.7799 9.69198 22.8039 9.69198 22.8639 9.69198C23.2119 9.67998 23.2839 9.66798 23.2839 9.55998C23.2719 9.31998 23.2359 8.49198 23.2359 8.25198V7.25598C23.4879 7.19598 23.5839 7.17198 23.8119 7.09998C23.8599 7.19598 23.8839 7.26798 23.8959 7.31598C23.9919 7.65198 24.0159 7.69998 24.0999 7.69998C24.2079 7.69998 24.4239 7.33998 24.4239 7.14798C24.4239 6.88398 24.2319 6.69198 23.4279 6.19998L23.3439 6.27198C23.5479 6.54798 23.6079 6.64398 23.7399 6.91998C23.3079 6.96798 23.3079 6.96798 22.4079 7.00398C23.3439 6.11598 23.3439 6.11598 23.7399 5.63598C24.1359 5.59998 24.1959 5.58798 24.1959 5.49198C24.1959 5.40798 24.0759 5.33598 23.4399 5.02398C23.2719 5.39598 23.1879 5.53998 22.7199 6.22398C22.3719 6.73998 22.3479 6.77598 22.1679 7.01598C22.0719 7.01598 22.0239 7.01598 21.9639 7.01598C21.8439 7.01598 21.6039 7.01598 21.5079 7.01598C21.6999 7.75998 21.6999 7.75998 21.7599 7.75998C21.8079 7.75998 21.8439 7.71198 21.9399 7.50798C22.2399 7.45998 22.3359 7.44798 22.6959 7.37598V8.28798ZM21.5199 5.15598C21.7839 5.53998 21.8799 5.69598 22.0239 6.00798C22.1559 6.30798 22.1799 6.34398 22.2519 6.34398C22.3599 6.34398 22.5639 6.01998 22.5639 5.85198C22.5639 5.71998 22.5039 5.64798 22.2039 5.43198C22.4079 5.25198 22.4079 5.25198 23.0919 4.57998C23.4519 4.54398 23.5719 4.50798 23.5719 4.41198C23.5719 4.33998 23.4879 4.30398 22.6119 3.97998C22.5279 4.38798 22.2999 4.97598 22.0839 5.34798C21.8919 5.23998 21.8319 5.20398 21.5679 5.05998L21.5199 5.15598ZM22.6719 11.6V11.744C22.6839 11.804 22.7079 11.816 22.7799 11.816H22.8759C22.8999 11.816 22.9239 11.816 22.9719 11.816C22.9959 11.816 23.0199 11.816 23.0319 11.816C23.3559 11.816 23.4759 11.768 23.4759 11.624C23.4519 11.372 23.4399 11.24 23.4399 11C23.4399 10.916 23.4399 10.796 23.4519 10.628C23.7279 10.448 23.7279 10.448 23.7279 10.412C23.7279 10.376 23.7039 10.34 23.6319 10.304C23.3559 10.088 23.2599 10.04 22.9719 9.87198C22.8039 10.028 22.7439 10.088 22.5519 10.28H17.3919C16.9359 10.28 16.7559 10.268 16.1919 10.172L16.3359 10.616C16.6719 10.568 16.9479 10.556 17.4159 10.556H22.6719V11.324H17.4999C17.1759 11.096 17.0799 11.036 16.7679 10.844C16.7559 10.964 16.7559 10.976 16.7319 11.048C16.6839 11.24 16.6839 11.24 16.5879 11.636C16.5039 11.96 16.5039 11.96 16.3119 12.488C16.2879 12.56 16.2519 12.668 16.2039 12.812C16.1799 12.86 16.1679 12.896 16.1559 12.92C16.1439 12.968 16.1439 12.992 16.1319 13.004C16.1319 13.076 16.3599 13.136 16.6599 13.136C16.8399 13.136 16.8759 13.124 16.9239 13.028C16.9839 12.86 16.9959 12.812 17.0439 12.68H23.0079C22.9239 13.268 22.8639 13.556 22.7679 13.772C22.6839 13.976 22.6359 14.024 22.4679 14.024C22.4079 14.024 22.2999 14.024 22.2039 14.012C21.6399 13.976 21.1839 13.952 20.2599 13.904L20.2479 14.048C21.1479 14.192 21.4839 14.264 21.7239 14.372C21.9279 14.468 22.0119 14.576 22.1199 14.924C22.7919 14.816 23.0679 14.696 23.3079 14.42C23.5239 14.168 23.5719 14 23.8119 12.872C24.1359 12.704 24.2319 12.632 24.2319 12.56C24.2319 12.536 24.2079 12.5 24.1599 12.464C23.8479 12.224 23.7399 12.152 23.3919 11.948C23.2119 12.128 23.1519 12.188 22.9599 12.404H17.1279C17.2959 11.84 17.2959 11.84 17.3559 11.6H22.6719ZM15.8919 5.05998C16.1079 5.28798 16.2879 5.59998 16.4199 5.97198C16.5519 6.30798 16.5759 6.34398 16.6479 6.34398C16.7919 6.34398 16.9719 6.07998 16.9719 5.88798C16.9719 5.73198 16.8639 5.56398 16.6839 5.39598C16.8759 5.22798 16.9239 5.19198 17.2959 4.84398C17.3439 4.79598 17.4159 4.72398 17.5119 4.63998C17.8119 4.62798 17.9679 4.56798 17.9679 4.45998C17.9679 4.38798 17.7399 4.27998 17.0439 4.00398C16.9479 4.30398 16.7319 4.87998 16.5519 5.29998C16.3719 5.16798 16.3119 5.13198 15.9879 4.93998L15.8919 5.05998ZM17.6559 7.96398C17.8599 8.41998 17.9079 8.62398 17.9559 9.07998C17.9919 9.40398 18.0039 9.43998 18.0999 9.43998C18.2799 9.43998 18.4479 9.10398 18.4479 8.76798C18.4479 8.56398 18.3159 8.40798 17.7519 7.91598L17.6559 7.96398ZM19.3479 4.44798C19.1919 4.44798 19.0479 4.42398 18.6999 4.36398L18.8199 4.79598C19.0599 4.74798 19.2159 4.72398 19.3959 4.72398H21.0639C21.1239 4.72398 21.1839 4.68798 21.1839 4.65198C21.1839 4.63998 21.1719 4.61598 21.1599 4.59198C20.9079 4.33998 20.8239 4.26798 20.5599 4.02798C20.3799 4.20798 20.3199 4.25598 20.1519 4.44798H19.3479ZM19.2159 5.29998C19.0479 5.29998 18.8799 5.27598 18.5439 5.20398L18.6519 5.64798C19.0599 5.57598 19.0599 5.57598 19.2519 5.57598H21.3399C21.3999 5.57598 21.4479 5.55198 21.4479 5.51598C21.4479 5.50398 21.4359 5.49198 21.4239 5.46798C21.1719 5.20398 21.0879 5.11998 20.7999 4.84398C20.6079 5.02398 20.5359 5.09598 20.3319 5.29998H19.2159ZM19.3479 6.21198C19.2039 6.21198 19.0959 6.19998 18.7479 6.11598L18.8799 6.54798C19.1199 6.49998 19.2519 6.48798 19.3479 6.48798H21.2439C21.3159 6.48798 21.3519 6.47598 21.3519 6.43998C21.3519 6.42798 21.3399 6.39198 21.3159 6.36798C21.0639 6.12798 20.9799 6.04398 20.6799 5.81598C20.4999 5.98398 20.4519 6.03198 20.2719 6.21198H19.3479ZM19.3959 7.03998C19.2639 7.03998 19.0839 7.01598 18.8199 6.94398L18.9279 7.37598C19.0959 7.33998 19.2519 7.31598 19.4199 7.31598H21.1479C21.1839 7.31598 21.2319 7.27998 21.2319 7.25598C21.2319 7.23198 21.2199 7.20798 21.2079 7.19598C20.9679 6.95598 20.8839 6.88398 20.6079 6.65598C20.4399 6.81198 20.3799 6.87198 20.2119 7.03998H19.3959ZM19.3599 7.92798C19.1079 7.73598 19.0239 7.67598 18.7599 7.51998C18.7839 7.71198 18.7959 7.83198 18.7959 7.96398L18.7839 8.38398C18.7839 8.57598 18.7839 8.76798 18.7719 8.95998C18.7719 9.45198 18.7719 9.45198 18.7479 9.69198V9.71598C18.7479 9.84798 18.7479 9.84798 19.0119 9.84798C19.2759 9.84798 19.3239 9.82398 19.3479 9.71598L19.3599 9.43998H20.4399L20.4519 9.61998C20.4519 9.75198 20.4639 9.75198 20.6919 9.75198C20.9679 9.75198 21.0399 9.72798 21.0519 9.61998C21.0279 8.92398 21.0279 8.85198 21.0279 8.28798C21.2079 8.16798 21.3039 8.09598 21.3039 8.07198C21.3039 8.05998 21.2799 8.02398 21.2319 7.98798C21.0039 7.80798 20.9319 7.75998 20.6919 7.59198C20.5479 7.72398 20.4999 7.77198 20.3559 7.92798H19.3599ZM19.3479 8.20398H20.4279V9.16398H19.3599L19.3479 8.20398ZM21.5079 9.64398C21.9039 9.19998 22.2159 8.75598 22.4439 8.28798C22.6119 8.20398 22.6599 8.16798 22.6599 8.10798C22.6599 8.02398 22.5159 7.97598 21.9279 7.83198C21.8799 8.37198 21.7719 8.73198 21.4239 9.58398L21.5079 9.64398ZM23.4039 7.85598C23.5959 8.20398 23.7879 8.65998 23.8839 9.00798C23.9559 9.30798 24.0039 9.37998 24.1119 9.37998C24.2439 9.37998 24.4119 9.07998 24.4119 8.85198C24.4119 8.57598 24.1239 8.23998 23.4879 7.78398L23.4039 7.85598ZM14.1039 4.35198C14.4399 4.63998 14.8239 5.13198 15.1239 5.65998C15.3159 5.98398 15.3279 5.99598 15.4359 5.99598C15.6039 5.99598 15.7479 5.67198 15.7479 5.27598C15.7479 5.05998 15.6519 4.92798 15.3519 4.74798C15.0519 4.56798 14.5959 4.36398 14.1639 4.20798L14.1039 4.35198ZM13.2519 6.90798C13.8279 7.45998 14.2239 7.92798 14.4759 8.35998C14.5599 8.50398 14.6199 8.55198 14.7039 8.55198C14.8599 8.55198 14.9559 8.31198 14.9559 7.93998C14.9559 7.60398 14.8479 7.43598 14.5359 7.27998C14.2239 7.09998 13.7919 6.93198 13.3239 6.79998L13.2519 6.90798ZM13.3719 11.384C14.1879 11.612 14.2599 11.72 14.2599 12.632C14.2599 12.944 14.2359 13.304 14.1639 13.784C14.1399 14.036 14.1159 14.228 14.1159 14.3C14.1159 14.54 14.2239 14.708 14.3799 14.708C14.5599 14.708 14.8599 14.528 14.9919 14.336C15.0999 14.18 15.1479 13.988 15.1479 13.676C15.1479 13.46 15.1239 13.292 15.0039 12.86C14.7519 11.936 14.7519 11.936 14.7519 11.804C14.7519 11.708 14.7639 11.648 14.8479 11.252L15.7239 7.65198L15.5679 7.61598C15.4839 7.86798 15.4839 7.86798 15.2919 8.38398C14.7759 9.81198 14.7159 9.99198 14.4639 10.676C14.2719 11.18 14.1879 11.288 13.9839 11.288C13.8639 11.288 13.6719 11.252 13.4199 11.18L13.3719 11.384ZM12.7719 31.652C11.6679 31.052 11.2239 30.74 10.7439 30.176C10.2879 29.648 9.86792 29.024 9.56792 28.376C10.7199 27.536 10.8159 27.464 11.6679 26.756C12.0399 26.756 12.2079 26.708 12.2079 26.6C12.2079 26.456 11.9439 26.3 11.0319 25.94C10.7079 26.696 10.3119 27.272 9.48392 28.184C9.19592 27.5 9.11192 27.128 8.95592 26.036C9.23192 25.772 9.23192 25.772 9.75992 25.232C10.2759 25.16 10.2759 25.16 10.3359 25.124C10.3599 25.088 10.3839 25.052 10.3839 25.016C10.3839 24.896 10.3359 24.872 9.20792 24.5C9.01592 24.884 8.84792 25.124 8.31992 25.772C7.51592 26.744 6.85592 27.356 5.76392 28.148L5.85992 28.316C6.56792 27.92 6.85592 27.74 7.35992 27.392V30.224C7.35992 31.028 7.35992 31.088 7.31192 32.12C7.31192 32.252 7.29992 32.504 7.28792 32.792C7.29992 32.864 7.33592 32.888 7.45592 32.888C8.00792 32.888 8.16392 32.84 8.16392 32.684C8.16392 32.66 8.16392 32.636 8.16392 32.612C8.12792 31.952 8.12792 31.664 8.12792 31.088V30.224L8.13992 26.792C8.36792 26.6 8.47592 26.504 8.71592 26.276C8.75192 26.576 8.77592 26.78 8.79992 26.888C9.00392 28.316 9.37592 29.336 10.1079 30.536C10.5879 31.304 10.9839 31.784 11.6559 32.396C11.9679 31.952 12.1719 31.832 12.7479 31.784L12.7719 31.652ZM4.05992 24.224V22.568C4.41992 22.448 4.59992 22.34 4.59992 22.268C4.59992 22.124 4.37192 22.076 3.24392 21.968C3.25592 22.34 3.25592 22.52 3.25592 22.748V24.224H2.52392C2.05592 24.188 1.74392 24.152 1.57592 24.128L1.70792 24.584C2.06792 24.512 2.24792 24.5 2.53592 24.5H2.97992C2.91992 26.576 2.90792 26.792 2.79992 27.764C2.55992 29.888 2.17592 31.1 1.26392 32.528L1.40792 32.624C1.82792 32.228 1.99592 32.036 2.21192 31.712C2.67992 31.004 3.07592 30.056 3.29192 29.072C3.45992 28.328 3.59192 27.464 3.66392 26.48H4.99592C4.94792 28.424 4.76792 30.416 4.55192 31.124C4.46792 31.424 4.41992 31.484 4.25192 31.484C4.21592 31.484 4.05992 31.472 3.95192 31.46C3.23192 31.388 3.23192 31.388 2.70392 31.352V31.532C3.45992 31.724 3.51992 31.748 3.66392 31.856C3.81992 31.976 3.87992 32.12 3.92792 32.444C5.22392 32.24 5.35592 31.952 5.61992 28.712C5.71592 27.632 5.76392 26.984 5.78792 26.744C5.85992 26.684 5.90792 26.636 5.94392 26.612C5.99192 26.576 6.02792 26.54 6.05192 26.528C6.08792 26.492 6.12392 26.432 6.12392 26.396C6.12392 26.348 6.07592 26.288 5.96792 26.204C5.65592 25.988 5.55992 25.916 5.24792 25.724C5.11592 25.94 5.06792 26.012 4.94792 26.204H3.67592C3.72392 25.448 3.72392 25.388 3.74792 24.5H6.17192C6.23192 24.5 6.27992 24.464 6.27992 24.416C6.27992 24.404 6.25592 24.368 6.21992 24.344C5.81192 24.008 5.67992 23.9 5.29592 23.588C5.05592 23.864 4.98392 23.948 4.76792 24.224H4.05992ZM7.37192 23.984C7.67192 23.48 7.81592 23.216 8.12792 22.556C8.65592 22.472 8.72792 22.448 8.72792 22.34C8.72792 22.208 8.53592 22.148 7.35992 21.884C7.11992 23.18 6.62792 24.356 5.69192 25.796L5.82392 25.88C6.43592 25.352 6.69992 25.04 7.20392 24.26H12.4239C12.4719 24.26 12.5199 24.224 12.5199 24.188C12.5199 24.176 12.5079 24.128 12.4719 24.092C12.0279 23.684 11.8839 23.564 11.4039 23.192C11.1039 23.528 11.0199 23.636 10.7319 23.984H7.37192ZM22.4439 28.016V27.272C22.7679 27.152 22.8759 27.092 22.8759 27.02C22.8759 26.972 22.8159 26.936 22.6959 26.888C23.1879 26.516 23.3439 26.372 23.7159 26C24.0039 25.94 24.1599 25.904 24.1839 25.892C24.2199 25.868 24.2439 25.832 24.2439 25.808C24.2439 25.76 24.2079 25.712 24.1359 25.652L23.3799 25.052C23.1879 25.268 23.1279 25.34 22.9479 25.532H21.2559C20.9559 25.532 20.9439 25.532 20.4879 25.46L20.6199 25.868C20.8959 25.808 20.9319 25.808 21.2559 25.808H22.9479C22.6239 26.384 22.4319 26.732 22.3719 26.828C22.1199 26.78 21.9999 26.756 21.6399 26.72C21.6879 27.308 21.6999 27.572 21.6999 27.872V28.016H20.6199C20.4039 28.016 20.0319 27.968 19.7919 27.92L19.9119 28.364C20.0559 28.328 20.0559 28.328 20.6199 28.292H21.6999V30.236C21.6999 30.392 21.6639 30.44 21.5439 30.464C21.3159 30.452 20.8239 30.416 20.0559 30.368V30.524C20.9919 30.668 21.1959 30.8 21.2559 31.316C21.7719 31.184 21.8679 31.16 22.0119 31.064C22.2999 30.884 22.4199 30.704 22.4559 30.356C22.4559 30.152 22.4559 30.128 22.4559 29.96C22.4439 29.672 22.4439 29.648 22.4439 29.528V28.292H24.5199C24.6159 28.292 24.6879 28.256 24.6879 28.208C24.6879 28.184 24.6639 28.136 24.6279 28.1C24.2559 27.728 24.1359 27.62 23.7159 27.272C23.4519 27.584 23.3799 27.68 23.1399 28.016H22.4439ZM18.4839 23.996V22.604C18.5919 22.556 18.6879 22.532 18.7479 22.52C18.8439 22.484 18.9159 22.46 18.9639 22.424C18.9879 22.4 18.9999 22.376 18.9999 22.352C18.9999 22.196 18.7119 22.124 17.6439 22.04C17.7039 22.592 17.7159 22.784 17.7159 22.988V23.996H17.0079C16.6959 23.996 16.4439 23.972 16.1559 23.912L16.2519 24.344C16.5279 24.296 16.7799 24.272 17.0079 24.272H17.4399C17.4399 25.22 17.4159 25.796 17.3319 26.684C17.1519 28.376 16.9119 29.288 16.2279 30.656L16.3479 30.728C17.1159 29.876 17.4519 29.252 17.7759 28.076C17.9439 27.44 18.0519 26.876 18.1359 26.048H19.0239C18.9759 27.86 18.8319 29.324 18.6519 30.02C18.5679 30.308 18.4359 30.428 18.1839 30.428C18.1719 30.428 18.1479 30.428 18.1239 30.428C18.1119 30.428 18.0759 30.428 18.0039 30.428C17.8479 30.416 17.7519 30.416 17.1399 30.356V30.512C17.9079 30.656 18.1359 30.812 18.1479 31.22C18.8679 31.112 19.1559 30.908 19.3359 30.356C19.5039 29.828 19.6359 28.52 19.7679 26.264C19.9359 26.156 20.0799 26.036 20.0919 25.988C20.0919 25.964 20.0679 25.94 19.9719 25.856C19.6959 25.64 19.6119 25.58 19.3119 25.364C19.1679 25.544 19.1199 25.604 18.9639 25.772H18.1599C18.1959 25.316 18.2079 24.992 18.2199 24.272H20.2959C20.3919 24.272 20.4639 24.236 20.4639 24.176C20.4639 24.152 20.4519 24.116 20.4279 24.08C20.1159 23.744 19.9959 23.648 19.6119 23.348C19.4079 23.624 19.3479 23.72 19.1199 23.996H18.4839ZM21.3999 23.996C21.5919 23.672 21.6399 23.6 22.1319 22.676C22.4439 22.616 22.6119 22.532 22.6119 22.448C22.6119 22.352 22.4559 22.28 21.9759 22.148C21.8439 22.124 21.6399 22.064 21.3879 21.992C21.3279 22.46 21.2679 22.712 21.0399 23.348C20.7279 24.224 20.4639 24.752 19.9119 25.568L20.0679 25.652C20.6439 25.052 20.8839 24.764 21.2199 24.272H24.3999C24.4599 24.272 24.5079 24.236 24.5079 24.188C24.5079 24.152 24.4959 24.128 24.4479 24.08C24.0759 23.732 23.9559 23.624 23.5719 23.288C23.2959 23.6 23.2119 23.696 22.9479 23.996H21.3999ZM13.6959 22.448C14.1159 22.868 14.5239 23.444 14.8479 24.104C15.1599 24.728 15.1599 24.728 15.1839 24.776C15.2439 24.884 15.2799 24.92 15.3639 24.92C15.4479 24.92 15.5799 24.824 15.6639 24.704C15.7479 24.584 15.8079 24.308 15.8079 24.008C15.8079 23.828 15.6879 23.66 15.3879 23.408C14.8839 22.988 14.5479 22.748 13.8279 22.316L13.6959 22.448ZM13.5399 27.356C13.8759 27.308 14.1279 27.272 14.2599 27.272H15.1119V30.524C14.4639 30.968 13.9839 31.232 13.4319 31.436C13.7559 32.108 13.9359 32.468 13.9599 32.528C14.0199 32.624 14.0799 32.672 14.1399 32.672C14.2239 32.672 14.2959 32.576 14.2959 32.432C14.2959 32.372 14.2959 32.372 14.2599 32.048C14.7399 31.544 15.0999 31.088 15.4959 30.524C16.1319 31.532 16.4919 31.892 17.1759 32.156C17.8839 32.432 18.8199 32.516 21.3639 32.516C21.8559 32.516 22.4439 32.504 24.0159 32.492C24.0759 32.06 24.3039 31.796 24.6999 31.676V31.532C23.4399 31.604 19.8159 31.724 19.1319 31.724C18.1599 31.724 17.5359 31.652 16.9959 31.484C16.5039 31.316 16.2159 31.088 15.8319 30.548V27.548C16.1919 27.32 16.2879 27.236 16.2879 27.14C16.2879 27.092 16.2519 27.044 16.1559 26.984C15.8919 26.768 15.7959 26.696 15.4959 26.48C15.3039 26.708 15.2439 26.78 15.0519 26.996H14.2599C14.0679 26.996 13.6359 26.96 13.4319 26.924L13.5399 27.356Z" fill="#009E96"/>
<path d="M31.5 4V36" stroke="#009E96"/>
<path d="M38.6692 7.74727V6.48678H44.5736L59.3346 25.7259V11.7941C59.3346 9.0741 58.1294 7.7141 55.719 7.7141V6.48678H64.3434V7.74727H64.0117C62.9944 7.74727 62.1983 8.07897 61.6234 8.74239C61.0484 9.4058 60.7609 10.3236 60.7609 11.4956V31H59.2019L43.877 10.9649V25.7259C43.877 28.4016 45.2592 29.7395 48.0234 29.7395V31H38.6692V29.7395C39.797 29.7395 40.7148 29.3857 41.4224 28.678C42.1301 27.9704 42.4839 27.0527 42.4839 25.9249V9.30629C41.7983 8.59865 41.4445 8.23377 41.4224 8.21166C41.0244 7.90206 40.4826 7.74727 39.797 7.74727H38.6692ZM69.1795 26.7541L77.5386 5.95605H78.6332L87.4566 28.3795C87.7883 29.2862 88.507 29.7395 89.6127 29.7395H90.3756V31H80.5903V29.7395H81.3864C83.1113 29.7395 83.9737 29.3967 83.9737 28.7112C83.9737 28.5122 83.9295 28.3132 83.841 28.1141L81.8176 22.8732H72.0986L70.9708 25.8917C70.7717 26.4224 70.6612 26.7541 70.6391 26.8868C70.5506 27.2185 70.5064 27.5502 70.5064 27.882C70.5064 28.3685 70.7717 28.7997 71.3025 29.1756C71.8553 29.5515 72.5851 29.7395 73.4917 29.7395H74.321V31H65.4313V29.7395H65.6966C67.2225 29.7395 68.3834 28.7444 69.1795 26.7541ZM81.32 21.6127L77.041 10.6995L72.6625 21.6127H81.32ZM91.4954 7.74727V6.48678H101.812V7.74727H99.7218C98.6603 7.74727 98.1296 8.05686 98.1296 8.67605C98.1296 8.87507 98.1628 9.08516 98.2291 9.30629C98.2954 9.50532 98.406 9.74858 98.5608 10.0361L104.996 26.4888L110.701 10.799C110.812 10.4673 110.867 10.0914 110.867 9.67117C110.867 8.38857 110.204 7.74727 108.877 7.74727H107.218V6.48678H116.241V7.74727H115.544C114.24 7.74727 113.178 8.85296 112.36 11.0644L104.797 31.5639H103.57L94.912 9.67117C94.6467 8.96353 94.315 8.46597 93.9169 8.17849C93.5189 7.89101 92.966 7.74727 92.2584 7.74727H91.4954ZM117.527 7.74727V6.48678H128.838V7.74727H126.914C126.029 7.74727 125.477 7.85784 125.255 8.07897C125.056 8.278 124.957 8.72028 124.957 9.40581V27.9815C124.957 28.5122 125.001 28.8881 125.09 29.1093C125.267 29.5294 125.797 29.7395 126.682 29.7395H128.838V31H117.527V29.7395H119.683C120.435 29.7395 120.921 29.6289 121.142 29.4078C121.363 29.1867 121.474 28.7112 121.474 27.9815V9.40581C121.474 8.72028 121.375 8.28906 121.175 8.11214C120.91 7.86889 120.335 7.74727 119.451 7.74727H117.527Z" fill="#009E96"/>
<path d="M0.126709 43.5122L0.292563 40.7902H6.14622L6.28281 43.5122H5.94134C5.72671 41.8992 5.14785 41.0927 4.20476 41.0927C4.03565 41.0927 3.91208 41.1252 3.83403 41.1902C3.76248 41.2488 3.72671 41.3593 3.72671 41.522V47.2878C3.72671 47.5154 3.8698 47.6293 4.15598 47.6293H4.88768V48H1.53159V47.6293H2.36086C2.58199 47.6293 2.69256 47.5285 2.69256 47.3268V41.4732C2.69256 41.226 2.53647 41.1024 2.22427 41.1024C1.30069 41.1024 0.721831 41.9057 0.487685 43.5122H0.126709ZM7.71343 44.0878C7.71343 44.1138 7.76871 44.2211 7.87928 44.4098C7.93782 44.5073 7.96709 44.5951 7.96709 44.6732C7.96709 44.9984 7.79798 45.161 7.45977 45.161C7.29066 45.161 7.15083 45.1122 7.04026 45.0146C6.93619 44.9106 6.88416 44.7642 6.88416 44.5756C6.88416 44.2374 7.07278 43.9415 7.45001 43.6878C7.82725 43.4276 8.29879 43.2976 8.86465 43.2976C9.37847 43.2976 9.78172 43.4114 10.0744 43.639C10.3736 43.8602 10.5232 44.1496 10.5232 44.5073V47.0146C10.5232 47.4374 10.6533 47.6488 10.9134 47.6488C10.985 47.6488 11.05 47.639 11.1086 47.6195C11.1736 47.5935 11.2419 47.5545 11.3134 47.5024L11.4988 47.7659C11.2647 48.013 11.0045 48.1366 10.7183 48.1366C10.2695 48.1366 9.94757 47.8634 9.75245 47.3171C9.46627 47.6163 9.21912 47.8211 9.01099 47.9317C8.75733 48.0683 8.44839 48.1366 8.08416 48.1366C7.63538 48.1366 7.28416 48.039 7.0305 47.8439C6.78335 47.6488 6.65977 47.3886 6.65977 47.0634C6.65977 46.6016 6.92644 46.2114 7.45977 45.8927C7.99961 45.5675 8.75083 45.3496 9.71343 45.239V44.5561C9.71343 44.2894 9.61262 44.0715 9.41099 43.9024C9.21587 43.7333 8.96871 43.6488 8.66953 43.6488C8.41587 43.6488 8.19148 43.7008 7.99635 43.8049C7.80774 43.9024 7.71343 43.9967 7.71343 44.0878ZM9.71343 46.2244V45.5707C8.95896 45.6748 8.40936 45.8341 8.06465 46.0488C7.72644 46.2569 7.55733 46.5626 7.55733 46.9659C7.55733 47.213 7.62237 47.4081 7.75245 47.5512C7.88904 47.6878 8.07115 47.7561 8.29879 47.7561C8.67603 47.7561 9.00448 47.613 9.28416 47.3268C9.57034 47.0341 9.71343 46.6667 9.71343 46.2244ZM13.0649 40.6927C13.2145 40.6927 13.3446 40.748 13.4552 40.8585C13.5657 40.9691 13.621 41.1024 13.621 41.2585C13.621 41.4081 13.569 41.535 13.4649 41.639C13.3609 41.7431 13.2308 41.7951 13.0747 41.7951C12.9186 41.7951 12.7885 41.7431 12.6844 41.639C12.5804 41.535 12.5283 41.4081 12.5283 41.2585C12.5283 41.1089 12.5804 40.9789 12.6844 40.8683C12.795 40.7512 12.9218 40.6927 13.0649 40.6927ZM11.8064 43.7951V43.4244L13.621 43.3463V47.2976C13.621 47.5187 13.7414 47.6293 13.982 47.6293H14.4991V48H11.904V47.6293H12.382C12.6682 47.6293 12.8113 47.4927 12.8113 47.2195V44.3415C12.8113 43.9772 12.6031 43.7951 12.1869 43.7951H11.8064ZM14.7361 43.7659V43.4244H16.7459V43.7659H16.4727C16.2386 43.7659 16.1215 43.8407 16.1215 43.9902C16.1215 44.0163 16.1247 44.0455 16.1312 44.078C16.1443 44.1301 16.1573 44.1756 16.1703 44.2146L17.1947 46.8L18.0825 44.3415C17.9719 44.1073 17.8776 43.9577 17.7995 43.8927C17.6955 43.8081 17.5166 43.7659 17.263 43.7659V43.4244H19.4776V43.7659H19.2825C19.1264 43.7659 19.0125 43.7821 18.941 43.8146C18.876 43.8407 18.8434 43.9024 18.8434 44C18.8434 44.0715 18.8564 44.1431 18.8825 44.2146L19.9264 46.8L20.7556 44.5073C20.7686 44.4683 20.7849 44.4065 20.8044 44.322C20.8239 44.2309 20.8337 44.1626 20.8337 44.1171C20.8337 43.9935 20.7817 43.9057 20.6776 43.8537C20.58 43.7951 20.4272 43.7659 20.2191 43.7659V43.4244H22.0142V43.7659C21.793 43.8049 21.6239 43.8732 21.5069 43.9707C21.3898 44.0683 21.2955 44.2244 21.2239 44.439L19.8873 48.1366H19.6044L18.3166 44.9366L17.1654 48.1366H16.8825L15.2532 44.0976C15.1947 43.961 15.1296 43.8732 15.0581 43.8341C14.993 43.7886 14.8857 43.7659 14.7361 43.7659ZM23.4556 44.0878C23.4556 44.1138 23.5109 44.2211 23.6215 44.4098C23.68 44.5073 23.7093 44.5951 23.7093 44.6732C23.7093 44.9984 23.5402 45.161 23.202 45.161C23.0329 45.161 22.893 45.1122 22.7825 45.0146C22.6784 44.9106 22.6264 44.7642 22.6264 44.5756C22.6264 44.2374 22.815 43.9415 23.1922 43.6878C23.5695 43.4276 24.041 43.2976 24.6069 43.2976C25.1207 43.2976 25.5239 43.4114 25.8166 43.639C26.1158 43.8602 26.2654 44.1496 26.2654 44.5073V47.0146C26.2654 47.4374 26.3955 47.6488 26.6556 47.6488C26.7272 47.6488 26.7922 47.639 26.8508 47.6195C26.9158 47.5935 26.9841 47.5545 27.0556 47.5024L27.241 47.7659C27.0069 48.013 26.7467 48.1366 26.4605 48.1366C26.0117 48.1366 25.6898 47.8634 25.4947 47.3171C25.2085 47.6163 24.9613 47.8211 24.7532 47.9317C24.4995 48.0683 24.1906 48.1366 23.8264 48.1366C23.3776 48.1366 23.0264 48.039 22.7727 47.8439C22.5256 47.6488 22.402 47.3886 22.402 47.0634C22.402 46.6016 22.6686 46.2114 23.202 45.8927C23.7418 45.5675 24.493 45.3496 25.4556 45.239V44.5561C25.4556 44.2894 25.3548 44.0715 25.1532 43.9024C24.9581 43.7333 24.7109 43.6488 24.4117 43.6488C24.1581 43.6488 23.9337 43.7008 23.7386 43.8049C23.5499 43.9024 23.4556 43.9967 23.4556 44.0878ZM25.4556 46.2244V45.5707C24.7012 45.6748 24.1516 45.8341 23.8069 46.0488C23.4686 46.2569 23.2995 46.5626 23.2995 46.9659C23.2995 47.213 23.3646 47.4081 23.4947 47.5512C23.6312 47.6878 23.8134 47.7561 24.041 47.7561C24.4182 47.7561 24.7467 47.613 25.0264 47.3268C25.3125 47.0341 25.4556 46.6667 25.4556 46.2244ZM27.5974 43.7463V43.4244L29.1193 43.3463C29.1648 43.5545 29.1974 43.7398 29.2169 43.9024C29.2429 44.0585 29.2559 44.2049 29.2559 44.3415C29.6592 43.678 30.2153 43.3463 30.9242 43.3463C31.3795 43.3463 31.734 43.4894 31.9876 43.7756C32.2413 44.0618 32.3681 44.4553 32.3681 44.9561V47.1805C32.3681 47.3431 32.4006 47.4602 32.4657 47.5317C32.5372 47.5967 32.664 47.6293 32.8461 47.6293H33.1779V48H30.7583V47.6293H30.9827C31.3665 47.6293 31.5583 47.4927 31.5583 47.2195V45.2683C31.5583 44.3447 31.2169 43.8829 30.534 43.8829C30.1762 43.8829 29.8738 44.0293 29.6266 44.322C29.3795 44.6146 29.2559 45.0016 29.2559 45.4829V47.1805C29.2559 47.3496 29.2917 47.4667 29.3632 47.5317C29.4348 47.5967 29.5648 47.6293 29.7535 47.6293H30.0657V48H27.6461V47.6293H27.9583C28.2835 47.6293 28.4461 47.5154 28.4461 47.2878V44.3415C28.4461 43.9447 28.2445 43.7463 27.8413 43.7463H27.5974ZM37.4509 43.5122L37.6168 40.7902H43.4705L43.607 43.5122H43.2656C43.0509 41.8992 42.4721 41.0927 41.529 41.0927C41.3599 41.0927 41.2363 41.1252 41.1583 41.1902C41.0867 41.2488 41.0509 41.3593 41.0509 41.522V47.2878C41.0509 47.5154 41.194 47.6293 41.4802 47.6293H42.2119V48H38.8558V47.6293H39.6851C39.9062 47.6293 40.0168 47.5285 40.0168 47.3268V41.4732C40.0168 41.226 39.8607 41.1024 39.5485 41.1024C38.6249 41.1024 38.0461 41.9057 37.8119 43.5122H37.4509ZM46.0425 43.2878C46.6669 43.2878 47.184 43.5122 47.5938 43.961C48.01 44.4098 48.2182 44.9984 48.2182 45.7268C48.2182 46.4423 48.0068 47.0244 47.584 47.4732C47.1612 47.9154 46.6442 48.1366 46.0328 48.1366C45.4214 48.1366 44.9108 47.9122 44.5011 47.4634C44.0978 47.0081 43.8962 46.426 43.8962 45.7171C43.8962 45.0081 44.0978 44.426 44.5011 43.9707C44.9043 43.5154 45.4182 43.2878 46.0425 43.2878ZM46.0425 43.639C45.6458 43.639 45.3369 43.8146 45.1157 44.1659C44.9011 44.5106 44.7938 45.0114 44.7938 45.6683C44.7938 46.3642 44.9011 46.8911 45.1157 47.2488C45.3303 47.6065 45.6425 47.7854 46.0523 47.7854C46.4621 47.7854 46.7743 47.6033 46.9889 47.239C47.21 46.8748 47.3206 46.3447 47.3206 45.6488C47.3206 44.9919 47.2068 44.4943 46.9791 44.1561C46.758 43.8114 46.4458 43.639 46.0425 43.639ZM48.5252 43.4244L50.1447 43.3463V46.3707C50.1447 46.735 50.2358 47.0244 50.4179 47.239C50.6065 47.4472 50.8504 47.5512 51.1496 47.5512C51.5073 47.5512 51.813 47.4016 52.0666 47.1024C52.3268 46.7967 52.4569 46.426 52.4569 45.9902V44.2732C52.4569 44.078 52.3919 43.948 52.2618 43.8829C52.1317 43.8114 51.9301 43.7756 51.6569 43.7756V43.4244L53.2666 43.3463V47.1024C53.2666 47.4537 53.4488 47.6293 53.813 47.6293H54.1057V47.961L52.5642 48L52.4666 47.1024C52.1935 47.4211 51.9171 47.665 51.6374 47.8341C51.3642 47.9967 51.0845 48.078 50.7984 48.078C50.3301 48.078 49.9691 47.9252 49.7154 47.6195C49.4618 47.3073 49.3349 46.8553 49.3349 46.2634V44.2732C49.3349 44.0846 49.2634 43.9545 49.1203 43.8829C48.9837 43.8114 48.7853 43.7756 48.5252 43.7756V43.4244ZM54.365 43.7756V43.4244L56.004 43.3463V45.1902C56.1861 44.5724 56.4008 44.1106 56.6479 43.8049C56.8951 43.4992 57.2008 43.3463 57.565 43.3463C57.8122 43.3463 58.0073 43.4244 58.1504 43.5805C58.3 43.7301 58.3748 43.9382 58.3748 44.2049C58.3748 44.387 58.326 44.5366 58.2284 44.6537C58.1309 44.7707 58.004 44.8293 57.8479 44.8293C57.7048 44.8293 57.5878 44.7805 57.4967 44.6829C57.4122 44.5789 57.3699 44.4455 57.3699 44.2829C57.3699 44.1919 57.3926 44.0976 57.4382 44C57.4837 43.9024 57.5065 43.8439 57.5065 43.8244C57.5065 43.8114 57.4935 43.7984 57.4674 43.7854C57.4609 43.7854 57.4447 43.7821 57.4187 43.7756C57.139 43.7756 56.8528 44.0488 56.5601 44.5951C56.2739 45.135 56.1309 45.7073 56.1309 46.3122V47.2878C56.1309 47.5154 56.3032 47.6293 56.6479 47.6293H57.2333V48H54.3943V47.6293H54.843C55.1617 47.6293 55.3211 47.5252 55.3211 47.3171V44.4098C55.3211 43.987 55.1357 43.7756 54.765 43.7756H54.365ZM59.9204 40.6927C60.07 40.6927 60.2001 40.748 60.3106 40.8585C60.4212 40.9691 60.4765 41.1024 60.4765 41.2585C60.4765 41.4081 60.4245 41.535 60.3204 41.639C60.2163 41.7431 60.0863 41.7951 59.9302 41.7951C59.7741 41.7951 59.644 41.7431 59.5399 41.639C59.4359 41.535 59.3838 41.4081 59.3838 41.2585C59.3838 41.1089 59.4359 40.9789 59.5399 40.8683C59.6505 40.7512 59.7773 40.6927 59.9204 40.6927ZM58.6619 43.7951V43.4244L60.4765 43.3463V47.2976C60.4765 47.5187 60.5968 47.6293 60.8375 47.6293H61.3545V48H58.7594V47.6293H59.2375C59.5237 47.6293 59.6667 47.4927 59.6667 47.2195V44.3415C59.6667 43.9772 59.4586 43.7951 59.0424 43.7951H58.6619ZM61.6794 46.2829H62.0013C62.19 46.8098 62.4111 47.1935 62.6648 47.4341C62.9184 47.6683 63.2534 47.7854 63.6696 47.7854C64.0013 47.7854 64.2648 47.7106 64.4599 47.561C64.6615 47.4049 64.7623 47.2065 64.7623 46.9659C64.7623 46.5821 64.5249 46.348 64.0501 46.2634L62.7916 45.9902C62.4729 45.9122 62.2192 45.7626 62.0306 45.5415C61.8485 45.3203 61.7574 45.0667 61.7574 44.7805C61.7574 44.3902 61.8973 44.0553 62.177 43.7756C62.4631 43.4894 62.8404 43.3463 63.3087 43.3463C63.7119 43.3463 64.0794 43.4699 64.4111 43.7171L64.7331 43.3756H64.9379L65.055 45.0049H64.7331C64.5965 44.5626 64.4111 44.2341 64.177 44.0195C63.9428 43.8049 63.6371 43.6976 63.2599 43.6976C62.9477 43.6976 62.7005 43.7756 62.5184 43.9317C62.3428 44.0813 62.255 44.2667 62.255 44.4878C62.255 44.878 62.9184 45.1902 64.2453 45.4244C64.5705 45.4764 64.8339 45.6195 65.0355 45.8537C65.2371 46.0878 65.3379 46.3642 65.3379 46.6829C65.3379 47.1057 65.1786 47.4537 64.8599 47.7268C64.5412 48 64.1412 48.1366 63.6599 48.1366C63.4062 48.1366 63.1818 48.1008 62.9867 48.0293C62.7981 47.9642 62.5997 47.8504 62.3916 47.6878L62.0404 48.0976H61.777L61.6794 46.2829ZM70.0345 45.278V47.239C70.0345 47.4992 70.1808 47.6293 70.4735 47.6293H70.7857V48H68.4735V47.6293H68.7272C69.0589 47.6293 69.2247 47.5154 69.2247 47.2878V45.1805C69.2247 44.3285 68.9321 43.9024 68.3467 43.9024C68.002 43.9024 67.7191 44.0455 67.4979 44.3317C67.2768 44.6179 67.1662 44.9821 67.1662 45.4244V47.239C67.1662 47.3821 67.202 47.4829 67.2735 47.5415C67.3451 47.6 67.4752 47.6293 67.6638 47.6293H67.8979V48H65.5955V47.6293H65.9467C66.2199 47.6293 66.3565 47.5154 66.3565 47.2878V44.2927C66.3565 44.1041 66.3077 43.9772 66.2101 43.9122C66.1191 43.8407 65.9532 43.7919 65.7126 43.7659V43.4244L67.0199 43.3463C67.0524 43.4959 67.0849 43.665 67.1174 43.8537C67.15 44.0423 67.1662 44.1984 67.1662 44.322C67.4004 43.9837 67.6345 43.7366 67.8686 43.5805C68.1093 43.4244 68.3922 43.3463 68.7174 43.3463C69.3548 43.3463 69.7711 43.6976 69.9662 44.4C70.4085 43.6976 70.9516 43.3463 71.5955 43.3463C72.0052 43.3463 72.3272 43.4894 72.5613 43.7756C72.7955 44.0618 72.9126 44.4618 72.9126 44.9756V47.239C72.9126 47.4992 73.0817 47.6293 73.4199 47.6293H73.6443V48H71.3516V47.6293H71.5662C71.9239 47.6293 72.1028 47.4992 72.1028 47.239V44.9756C72.1028 44.6439 72.0215 44.3837 71.8589 44.1951C71.6963 44.0065 71.4752 43.9122 71.1955 43.9122C70.8638 43.9122 70.5873 44.0585 70.3662 44.3512C70.1451 44.6374 70.0345 44.9463 70.0345 45.278ZM81.3051 40.6244C82.2742 40.6244 83.0839 40.9789 83.7343 41.6878C84.3847 42.3967 84.71 43.3008 84.71 44.4C84.71 45.4927 84.3847 46.3935 83.7343 47.1024C83.0839 47.8114 82.2904 48.1659 81.3539 48.1659C80.4173 48.1659 79.627 47.8081 78.9831 47.0927C78.3392 46.3772 78.0173 45.4699 78.0173 44.3707C78.0173 43.2976 78.3392 42.4065 78.9831 41.6976C79.6335 40.9821 80.4075 40.6244 81.3051 40.6244ZM81.3831 41.0049C80.9929 41.0049 80.6417 41.1089 80.3295 41.3171C80.0238 41.5252 79.7799 41.8244 79.5978 42.2146C79.4807 42.4553 79.3929 42.761 79.3343 43.1317C79.2758 43.5024 79.2465 43.9122 79.2465 44.361C79.2465 46.6439 79.949 47.7854 81.3539 47.7854C82.0368 47.7854 82.5604 47.5024 82.9246 46.9366C83.2953 46.3707 83.4807 45.5382 83.4807 44.439C83.4807 42.1496 82.7815 41.0049 81.3831 41.0049ZM86.7852 42.4195V43.4244H87.9267V43.8537H86.7852V47.1902C86.7852 47.4829 86.9576 47.6293 87.3023 47.6293H87.9267V48H85.1267V47.6293H85.5169C85.6795 47.6293 85.7966 47.6033 85.8681 47.5512C85.9397 47.4992 85.9754 47.4049 85.9754 47.2683V43.8537H85.1852V43.4244H85.9754V43.0829C85.9754 42.3089 86.1348 41.7008 86.4535 41.2585C86.7787 40.8163 87.2047 40.5951 87.7315 40.5951C88.0893 40.5951 88.3722 40.6829 88.5803 40.8585C88.7885 41.0341 88.8925 41.2715 88.8925 41.5707C88.8925 41.7593 88.847 41.9089 88.7559 42.0195C88.6649 42.1301 88.538 42.1854 88.3754 42.1854C88.2389 42.1854 88.125 42.1431 88.034 42.0585C87.9429 41.974 87.8974 41.8569 87.8974 41.7073C87.8974 41.5967 87.9332 41.4959 88.0047 41.4049C88.0372 41.3659 88.1055 41.3008 88.2096 41.2098L88.2193 41.1707C88.2193 41.1122 88.1738 41.0602 88.0828 41.0146C87.9982 40.9691 87.8941 40.9463 87.7706 40.9463C87.4714 40.9463 87.2307 41.0732 87.0486 41.3268C86.873 41.5805 86.7852 41.9447 86.7852 42.4195ZM90.252 42.4195V43.4244H91.3935V43.8537H90.252V47.1902C90.252 47.4829 90.4244 47.6293 90.7691 47.6293H91.3935V48H88.5935V47.6293H88.9837C89.1463 47.6293 89.2634 47.6033 89.3349 47.5512C89.4065 47.4992 89.4422 47.4049 89.4422 47.2683V43.8537H88.652V43.4244H89.4422V43.0829C89.4422 42.3089 89.6016 41.7008 89.9203 41.2585C90.2455 40.8163 90.6715 40.5951 91.1983 40.5951C91.5561 40.5951 91.839 40.6829 92.0471 40.8585C92.2552 41.0341 92.3593 41.2715 92.3593 41.5707C92.3593 41.7593 92.3138 41.9089 92.2227 42.0195C92.1317 42.1301 92.0048 42.1854 91.8422 42.1854C91.7057 42.1854 91.5918 42.1431 91.5008 42.0585C91.4097 41.974 91.3642 41.8569 91.3642 41.7073C91.3642 41.5967 91.4 41.4959 91.4715 41.4049C91.504 41.3659 91.5723 41.3008 91.6764 41.2098L91.6861 41.1707C91.6861 41.1122 91.6406 41.0602 91.5496 41.0146C91.465 40.9691 91.3609 40.9463 91.2374 40.9463C90.9382 40.9463 90.6975 41.0732 90.5154 41.3268C90.3398 41.5805 90.252 41.9447 90.252 42.4195ZM93.27 40.6927C93.4196 40.6927 93.5497 40.748 93.6603 40.8585C93.7708 40.9691 93.8261 41.1024 93.8261 41.2585C93.8261 41.4081 93.7741 41.535 93.67 41.639C93.5659 41.7431 93.4359 41.7951 93.2798 41.7951C93.1237 41.7951 92.9936 41.7431 92.8895 41.639C92.7855 41.535 92.7334 41.4081 92.7334 41.2585C92.7334 41.1089 92.7855 40.9789 92.8895 40.8683C93.0001 40.7512 93.1269 40.6927 93.27 40.6927ZM92.0115 43.7951V43.4244L93.8261 43.3463V47.2976C93.8261 47.5187 93.9464 47.6293 94.1871 47.6293H94.7042V48H92.109V47.6293H92.5871C92.8733 47.6293 93.0164 47.4927 93.0164 47.2195V44.3415C93.0164 43.9772 92.8082 43.7951 92.392 43.7951H92.0115ZM98.5217 46.6439L98.8339 46.7317C98.6843 47.1805 98.4664 47.5285 98.1802 47.7756C97.894 48.0163 97.5493 48.1366 97.1461 48.1366C96.5152 48.1366 95.9981 47.9285 95.5949 47.5122C95.1916 47.0959 94.99 46.5333 94.99 45.8244C94.99 45.0634 95.1981 44.452 95.6144 43.9902C96.0371 43.522 96.5737 43.2878 97.2241 43.2878C97.6664 43.2878 98.0404 43.4146 98.3461 43.6683C98.6323 43.9024 98.7753 44.1756 98.7753 44.4878C98.7753 44.6634 98.7201 44.813 98.6095 44.9366C98.4989 45.0602 98.3688 45.122 98.2193 45.122C98.0827 45.122 97.9623 45.0732 97.8583 44.9756C97.7542 44.878 97.7022 44.7512 97.7022 44.5951C97.7022 44.4911 97.7347 44.387 97.7997 44.2829C97.8258 44.2439 97.8713 44.1789 97.9363 44.0878L97.9461 44.0488C97.9461 43.9447 97.881 43.8504 97.751 43.7659C97.6209 43.6813 97.4518 43.639 97.2436 43.639C96.8144 43.639 96.4827 43.8211 96.2485 44.1854C96.0144 44.5496 95.8973 45.0667 95.8973 45.7366C95.8973 46.3545 96.0209 46.8358 96.268 47.1805C96.5152 47.5252 96.8469 47.6976 97.2632 47.6976C97.829 47.6976 98.2485 47.3463 98.5217 46.6439ZM100.458 40.6927C100.607 40.6927 100.737 40.748 100.848 40.8585C100.958 40.9691 101.014 41.1024 101.014 41.2585C101.014 41.4081 100.962 41.535 100.858 41.639C100.754 41.7431 100.623 41.7951 100.467 41.7951C100.311 41.7951 100.181 41.7431 100.077 41.639C99.973 41.535 99.9209 41.4081 99.9209 41.2585C99.9209 41.1089 99.973 40.9789 100.077 40.8683C100.188 40.7512 100.315 40.6927 100.458 40.6927ZM99.199 43.7951V43.4244L101.014 43.3463V47.2976C101.014 47.5187 101.134 47.6293 101.375 47.6293H101.892V48H99.2965V47.6293H99.7746C100.061 47.6293 100.204 47.4927 100.204 47.2195V44.3415C100.204 43.9772 99.9957 43.7951 99.5795 43.7951H99.199ZM103.348 44.0878C103.348 44.1138 103.404 44.2211 103.514 44.4098C103.573 44.5073 103.602 44.5951 103.602 44.6732C103.602 44.9984 103.433 45.161 103.095 45.161C102.926 45.161 102.786 45.1122 102.675 45.0146C102.571 44.9106 102.519 44.7642 102.519 44.5756C102.519 44.2374 102.708 43.9415 103.085 43.6878C103.462 43.4276 103.934 43.2976 104.5 43.2976C105.013 43.2976 105.417 43.4114 105.709 43.639C106.008 43.8602 106.158 44.1496 106.158 44.5073V47.0146C106.158 47.4374 106.288 47.6488 106.548 47.6488C106.62 47.6488 106.685 47.639 106.743 47.6195C106.808 47.5935 106.877 47.5545 106.948 47.5024L107.134 47.7659C106.9 48.013 106.639 48.1366 106.353 48.1366C105.904 48.1366 105.582 47.8634 105.387 47.3171C105.101 47.6163 104.854 47.8211 104.646 47.9317C104.392 48.0683 104.083 48.1366 103.719 48.1366C103.27 48.1366 102.919 48.039 102.665 47.8439C102.418 47.6488 102.295 47.3886 102.295 47.0634C102.295 46.6016 102.561 46.2114 103.095 45.8927C103.634 45.5675 104.386 45.3496 105.348 45.239V44.5561C105.348 44.2894 105.248 44.0715 105.046 43.9024C104.851 43.7333 104.604 43.6488 104.304 43.6488C104.051 43.6488 103.826 43.7008 103.631 43.8049C103.443 43.9024 103.348 43.9967 103.348 44.0878ZM105.348 46.2244V45.5707C104.594 45.6748 104.044 45.8341 103.7 46.0488C103.361 46.2569 103.192 46.5626 103.192 46.9659C103.192 47.213 103.257 47.4081 103.387 47.5512C103.524 47.6878 103.706 47.7561 103.934 47.7561C104.311 47.7561 104.639 47.613 104.919 47.3268C105.205 47.0341 105.348 46.6667 105.348 46.2244ZM107.461 40.7902L109.266 40.6927V47.3171C109.266 47.4081 109.301 47.4829 109.373 47.5415C109.445 47.6 109.536 47.6293 109.646 47.6293H110.124V48H107.539V47.6293H107.997C108.303 47.6293 108.456 47.4927 108.456 47.2195V41.6683C108.456 41.5057 108.404 41.3789 108.3 41.2878C108.196 41.1967 108.053 41.1512 107.871 41.1512H107.461V40.7902ZM114.492 45.2878H114.843C114.973 46.0423 115.272 46.6472 115.741 47.1024C116.209 47.5577 116.752 47.7854 117.37 47.7854C117.845 47.7854 118.235 47.6455 118.541 47.3659C118.846 47.0797 118.999 46.735 118.999 46.3317C118.999 46.013 118.889 45.7463 118.668 45.5317C118.446 45.3106 118.134 45.1545 117.731 45.0634C116.918 44.8813 116.342 44.7285 116.004 44.6049C115.503 44.4228 115.152 44.2081 114.951 43.961C114.716 43.6748 114.599 43.2813 114.599 42.7805C114.599 42.1626 114.801 41.6488 115.204 41.239C115.607 40.8293 116.118 40.6244 116.736 40.6244C117.074 40.6244 117.377 40.6829 117.643 40.8C117.916 40.9171 118.19 41.0927 118.463 41.3268L118.911 40.6927H119.263L119.292 43.3366H118.97C118.586 41.7821 117.838 41.0049 116.726 41.0049C116.29 41.0049 115.933 41.135 115.653 41.3951C115.38 41.6488 115.243 41.9577 115.243 42.322C115.243 42.6927 115.37 42.9854 115.624 43.2C115.819 43.3691 116.316 43.5447 117.116 43.7268C117.923 43.9089 118.495 44.1041 118.833 44.3122C119.406 44.6634 119.692 45.1837 119.692 45.8732C119.692 46.5236 119.474 47.0634 119.038 47.4927C118.603 47.922 118.033 48.1366 117.331 48.1366C116.596 48.1366 115.949 47.8959 115.39 47.4146L114.843 48.0878H114.492V45.2878ZM121.268 40.6927C121.418 40.6927 121.548 40.748 121.658 40.8585C121.769 40.9691 121.824 41.1024 121.824 41.2585C121.824 41.4081 121.772 41.535 121.668 41.639C121.564 41.7431 121.434 41.7951 121.278 41.7951C121.122 41.7951 120.992 41.7431 120.888 41.639C120.784 41.535 120.732 41.4081 120.732 41.2585C120.732 41.1089 120.784 40.9789 120.888 40.8683C120.998 40.7512 121.125 40.6927 121.268 40.6927ZM120.01 43.7951V43.4244L121.824 43.3463V47.2976C121.824 47.5187 121.945 47.6293 122.185 47.6293H122.702V48H120.107V47.6293H120.585C120.871 47.6293 121.015 47.4927 121.015 47.2195V44.3415C121.015 43.9772 120.806 43.7951 120.39 43.7951H120.01ZM122.969 43.8732V43.5317C123.821 43.3886 124.247 42.735 124.247 41.5707H124.578V43.4244H126.061V43.8732H124.578V46.8098C124.578 47.0569 124.637 47.252 124.754 47.3951C124.871 47.5382 125.034 47.6098 125.242 47.6098C125.495 47.6098 125.694 47.4959 125.837 47.2683C125.987 47.0407 126.061 46.7089 126.061 46.2732H126.393C126.393 46.8585 126.263 47.3073 126.003 47.6195C125.749 47.9252 125.404 48.078 124.969 48.078C124.598 48.078 124.305 47.9772 124.091 47.7756C123.876 47.574 123.769 47.2943 123.769 46.9366V43.8732H122.969ZM130.621 46.6146L130.943 46.7512C130.468 47.6748 129.782 48.1366 128.884 48.1366C128.267 48.1366 127.749 47.9187 127.333 47.4829C126.923 47.0407 126.719 46.4715 126.719 45.7756C126.719 45.0407 126.92 44.4423 127.323 43.9805C127.727 43.5187 128.237 43.2878 128.855 43.2878C129.48 43.2878 129.977 43.5089 130.348 43.9512C130.725 44.387 130.914 44.9919 130.914 45.7659H127.636C127.636 46.0195 127.652 46.2439 127.684 46.439C127.717 46.6341 127.772 46.8033 127.85 46.9463C128.117 47.4472 128.53 47.6976 129.089 47.6976C129.727 47.6976 130.237 47.3366 130.621 46.6146ZM127.636 45.3951H129.616C129.863 45.3951 129.987 45.2325 129.987 44.9073C129.987 44.5431 129.876 44.2341 129.655 43.9805C129.441 43.7203 129.177 43.5902 128.865 43.5902C128.501 43.5902 128.205 43.7496 127.977 44.0683C127.749 44.387 127.636 44.8293 127.636 45.3951Z" fill="#009E96"/>
</svg>
