<svg width="136" height="51" viewBox="0 0 136 51" fill="none" xmlns="http://www.w3.org/2000/svg">
<path d="M2.29592 8.81647C2.33192 9.02047 2.37992 9.18847 2.40392 9.24847C2.43992 9.32047 2.48792 9.36847 2.52392 9.36847C2.60792 9.36847 2.65592 9.28447 2.79992 8.91247C5.07992 8.70847 7.35992 8.43247 10.2999 8.01247C10.5639 8.38447 10.7439 8.66047 11.0919 9.23647C11.1879 9.39247 11.2599 9.45247 11.3559 9.45247C11.5479 9.45247 11.6799 9.08047 11.6799 8.56447C11.6799 8.13247 11.6079 8.03647 10.7919 7.38847C9.96392 6.74047 9.43592 6.38047 8.52392 5.87647L8.42792 6.00847C9.18392 6.69247 9.62792 7.14847 10.0959 7.74847C8.31992 7.90447 6.36392 8.00047 4.65992 8.03647C5.60792 6.76447 5.94392 6.26047 6.83192 4.83247C7.27592 4.77247 7.35992 4.73647 7.35992 4.61647C7.35992 4.49647 7.16792 4.42447 5.96792 4.07647C5.85992 4.58047 5.67992 5.04847 5.15192 6.26047C4.77992 7.08847 4.73192 7.18447 4.28792 8.04847C3.26792 8.07247 2.94392 8.07247 2.83592 8.07247C2.63192 8.07247 2.47592 8.07247 2.15192 8.04847L2.29592 8.81647ZM4.43192 10.3525C4.02392 10.0885 3.89192 10.0045 3.45992 9.77647C3.48392 10.3765 3.49592 10.8325 3.49592 11.2765C3.49592 12.5125 3.48392 13.8085 3.45992 14.7085C3.45992 14.7205 3.45992 14.7325 3.45992 14.7325C3.45992 14.8285 3.51992 14.8645 3.65192 14.8645C3.84392 14.8645 4.16792 14.8405 4.22792 14.8165C4.29992 14.8045 4.32392 14.7805 4.32392 14.7085V14.1325H9.67592V14.7085C9.68792 14.7805 9.71192 14.8045 9.78392 14.8045C10.1319 14.8045 10.4679 14.7685 10.5279 14.7325C10.5759 14.7085 10.5879 14.6725 10.5879 14.5885C10.5399 13.7605 10.5279 12.9805 10.5279 11.7685C10.5279 11.5765 10.5279 11.2525 10.5279 10.8565C10.8639 10.6405 10.9359 10.5925 10.9359 10.5085C10.9359 10.4725 10.8999 10.4245 10.8039 10.3525C10.4679 10.1005 10.3719 10.0165 10.0119 9.77647C9.79592 10.0165 9.72392 10.0885 9.51992 10.3525H4.43192ZM4.32392 10.6285H9.67592V13.8565H4.32392V10.6285ZM16.9239 8.03647C16.7919 7.98847 16.7199 7.97647 16.4799 7.94047C16.4079 7.92847 16.2999 7.90447 16.1679 7.89247C16.1559 8.45647 15.9879 9.04447 15.6639 9.70447L15.7719 9.75247C16.1439 9.33247 16.4679 8.80447 16.7199 8.25247C16.8159 8.24047 16.8519 8.22847 16.9239 8.18047V8.31247C16.9239 8.74447 16.8999 9.27247 16.8759 9.72847C16.8879 9.82447 16.9119 9.83647 17.0559 9.83647C17.2359 9.83647 17.4639 9.81247 17.4999 9.78847C17.5119 9.77647 17.5239 9.72847 17.5239 9.65647C17.5119 9.45247 17.5119 9.45247 17.4999 9.14047C17.4879 8.87647 17.4759 8.58847 17.4639 8.28847V7.28047C17.6679 7.24447 17.6799 7.23247 17.7879 7.20847C17.9319 7.18447 17.9319 7.18447 18.0279 7.16047C18.0759 7.26847 18.0999 7.32847 18.1239 7.41247C18.2079 7.70047 18.2439 7.74847 18.3159 7.74847C18.4359 7.74847 18.5679 7.49647 18.5679 7.29247C18.5679 7.11247 18.4959 6.98047 18.3039 6.80047C18.0879 6.59647 17.9079 6.46447 17.7279 6.36847L17.6079 6.44047C17.7759 6.68047 17.8359 6.75247 17.9439 6.99247C17.6439 7.00447 17.4639 7.01647 16.8039 7.02847C17.0079 6.82447 17.8239 5.98447 18.0759 5.72047C18.2919 5.70847 18.3999 5.67247 18.3999 5.58847C18.3999 5.52847 18.2559 5.44447 17.6799 5.18047C17.2959 5.91247 16.8999 6.53647 16.5399 7.02847C16.4439 7.02847 16.3719 7.02847 16.3239 7.04047C16.2159 7.04047 16.1439 7.04047 16.1199 7.04047C16.0479 7.04047 15.9759 7.02847 15.8439 7.01647C16.0239 7.74847 16.0239 7.74847 16.1079 7.74847C16.1679 7.74847 16.2159 7.67647 16.2759 7.48447C16.5159 7.44847 16.5639 7.43647 16.9239 7.37647V8.03647ZM22.6959 8.28847C22.6959 8.72047 22.6719 9.26047 22.6479 9.62047C22.6479 9.68047 22.6599 9.69247 22.7319 9.69247C22.7319 9.69247 22.7439 9.69247 22.7559 9.69247C22.7799 9.69247 22.8039 9.69247 22.8639 9.69247C23.2119 9.68047 23.2839 9.66847 23.2839 9.56047C23.2719 9.32047 23.2359 8.49247 23.2359 8.25247V7.25647C23.4879 7.19647 23.5839 7.17247 23.8119 7.10047C23.8599 7.19647 23.8839 7.26847 23.8959 7.31647C23.9919 7.65247 24.0159 7.70047 24.0999 7.70047C24.2079 7.70047 24.4239 7.34047 24.4239 7.14847C24.4239 6.88447 24.2319 6.69247 23.4279 6.20047L23.3439 6.27247C23.5479 6.54847 23.6079 6.64447 23.7399 6.92047C23.3079 6.96847 23.3079 6.96847 22.4079 7.00447C23.3439 6.11647 23.3439 6.11647 23.7399 5.63647C24.1359 5.60047 24.1959 5.58847 24.1959 5.49247C24.1959 5.40847 24.0759 5.33647 23.4399 5.02447C23.2719 5.39647 23.1879 5.54047 22.7199 6.22447C22.3719 6.74047 22.3479 6.77647 22.1679 7.01647C22.0719 7.01647 22.0239 7.01647 21.9639 7.01647C21.8439 7.01647 21.6039 7.01647 21.5079 7.01647C21.6999 7.76047 21.6999 7.76047 21.7599 7.76047C21.8079 7.76047 21.8439 7.71247 21.9399 7.50847C22.2399 7.46047 22.3359 7.44847 22.6959 7.37647V8.28847ZM21.5199 5.15647C21.7839 5.54047 21.8799 5.69647 22.0239 6.00847C22.1559 6.30847 22.1799 6.34447 22.2519 6.34447C22.3599 6.34447 22.5639 6.02047 22.5639 5.85247C22.5639 5.72047 22.5039 5.64847 22.2039 5.43247C22.4079 5.25247 22.4079 5.25247 23.0919 4.58047C23.4519 4.54447 23.5719 4.50847 23.5719 4.41247C23.5719 4.34047 23.4879 4.30447 22.6119 3.98047C22.5279 4.38847 22.2999 4.97647 22.0839 5.34847C21.8919 5.24047 21.8319 5.20447 21.5679 5.06047L21.5199 5.15647ZM22.6719 11.6005V11.7445C22.6839 11.8045 22.7079 11.8165 22.7799 11.8165H22.8759C22.8999 11.8165 22.9239 11.8165 22.9719 11.8165C22.9959 11.8165 23.0199 11.8165 23.0319 11.8165C23.3559 11.8165 23.4759 11.7685 23.4759 11.6245C23.4519 11.3725 23.4399 11.2405 23.4399 11.0005C23.4399 10.9165 23.4399 10.7965 23.4519 10.6285C23.7279 10.4485 23.7279 10.4485 23.7279 10.4125C23.7279 10.3765 23.7039 10.3405 23.6319 10.3045C23.3559 10.0885 23.2599 10.0405 22.9719 9.87247C22.8039 10.0285 22.7439 10.0885 22.5519 10.2805H17.3919C16.9359 10.2805 16.7559 10.2685 16.1919 10.1725L16.3359 10.6165C16.6719 10.5685 16.9479 10.5565 17.4159 10.5565H22.6719V11.3245H17.4999C17.1759 11.0965 17.0799 11.0365 16.7679 10.8445C16.7559 10.9645 16.7559 10.9765 16.7319 11.0485C16.6839 11.2405 16.6839 11.2405 16.5879 11.6365C16.5039 11.9605 16.5039 11.9605 16.3119 12.4885C16.2879 12.5605 16.2519 12.6685 16.2039 12.8125C16.1799 12.8605 16.1679 12.8965 16.1559 12.9205C16.1439 12.9685 16.1439 12.9925 16.1319 13.0045C16.1319 13.0765 16.3599 13.1365 16.6599 13.1365C16.8399 13.1365 16.8759 13.1245 16.9239 13.0285C16.9839 12.8605 16.9959 12.8125 17.0439 12.6805H23.0079C22.9239 13.2685 22.8639 13.5565 22.7679 13.7725C22.6839 13.9765 22.6359 14.0245 22.4679 14.0245C22.4079 14.0245 22.2999 14.0245 22.2039 14.0125C21.6399 13.9765 21.1839 13.9525 20.2599 13.9045L20.2479 14.0485C21.1479 14.1925 21.4839 14.2645 21.7239 14.3725C21.9279 14.4685 22.0119 14.5765 22.1199 14.9245C22.7919 14.8165 23.0679 14.6965 23.3079 14.4205C23.5239 14.1685 23.5719 14.0005 23.8119 12.8725C24.1359 12.7045 24.2319 12.6325 24.2319 12.5605C24.2319 12.5365 24.2079 12.5005 24.1599 12.4645C23.8479 12.2245 23.7399 12.1525 23.3919 11.9485C23.2119 12.1285 23.1519 12.1885 22.9599 12.4045H17.1279C17.2959 11.8405 17.2959 11.8405 17.3559 11.6005H22.6719ZM15.8919 5.06047C16.1079 5.28847 16.2879 5.60047 16.4199 5.97247C16.5519 6.30847 16.5759 6.34447 16.6479 6.34447C16.7919 6.34447 16.9719 6.08047 16.9719 5.88847C16.9719 5.73247 16.8639 5.56447 16.6839 5.39647C16.8759 5.22847 16.9239 5.19247 17.2959 4.84447C17.3439 4.79647 17.4159 4.72447 17.5119 4.64047C17.8119 4.62847 17.9679 4.56847 17.9679 4.46047C17.9679 4.38847 17.7399 4.28047 17.0439 4.00447C16.9479 4.30447 16.7319 4.88047 16.5519 5.30047C16.3719 5.16847 16.3119 5.13247 15.9879 4.94047L15.8919 5.06047ZM17.6559 7.96447C17.8599 8.42047 17.9079 8.62447 17.9559 9.08047C17.9919 9.40447 18.0039 9.44047 18.0999 9.44047C18.2799 9.44047 18.4479 9.10447 18.4479 8.76847C18.4479 8.56447 18.3159 8.40847 17.7519 7.91647L17.6559 7.96447ZM19.3479 4.44847C19.1919 4.44847 19.0479 4.42447 18.6999 4.36447L18.8199 4.79647C19.0599 4.74847 19.2159 4.72447 19.3959 4.72447H21.0639C21.1239 4.72447 21.1839 4.68847 21.1839 4.65247C21.1839 4.64047 21.1719 4.61647 21.1599 4.59247C20.9079 4.34047 20.8239 4.26847 20.5599 4.02847C20.3799 4.20847 20.3199 4.25647 20.1519 4.44847H19.3479ZM19.2159 5.30047C19.0479 5.30047 18.8799 5.27647 18.5439 5.20447L18.6519 5.64847C19.0599 5.57647 19.0599 5.57647 19.2519 5.57647H21.3399C21.3999 5.57647 21.4479 5.55247 21.4479 5.51647C21.4479 5.50447 21.4359 5.49247 21.4239 5.46847C21.1719 5.20447 21.0879 5.12047 20.7999 4.84447C20.6079 5.02447 20.5359 5.09647 20.3319 5.30047H19.2159ZM19.3479 6.21247C19.2039 6.21247 19.0959 6.20047 18.7479 6.11647L18.8799 6.54847C19.1199 6.50047 19.2519 6.48847 19.3479 6.48847H21.2439C21.3159 6.48847 21.3519 6.47647 21.3519 6.44047C21.3519 6.42847 21.3399 6.39247 21.3159 6.36847C21.0639 6.12847 20.9799 6.04447 20.6799 5.81647C20.4999 5.98447 20.4519 6.03247 20.2719 6.21247H19.3479ZM19.3959 7.04047C19.2639 7.04047 19.0839 7.01647 18.8199 6.94447L18.9279 7.37647C19.0959 7.34047 19.2519 7.31647 19.4199 7.31647H21.1479C21.1839 7.31647 21.2319 7.28047 21.2319 7.25647C21.2319 7.23247 21.2199 7.20847 21.2079 7.19647C20.9679 6.95647 20.8839 6.88447 20.6079 6.65647C20.4399 6.81247 20.3799 6.87247 20.2119 7.04047H19.3959ZM19.3599 7.92847C19.1079 7.73647 19.0239 7.67647 18.7599 7.52047C18.7839 7.71247 18.7959 7.83247 18.7959 7.96447L18.7839 8.38447C18.7839 8.57647 18.7839 8.76847 18.7719 8.96047C18.7719 9.45247 18.7719 9.45247 18.7479 9.69247V9.71647C18.7479 9.84847 18.7479 9.84847 19.0119 9.84847C19.2759 9.84847 19.3239 9.82447 19.3479 9.71647L19.3599 9.44047H20.4399L20.4519 9.62047C20.4519 9.75247 20.4639 9.75247 20.6919 9.75247C20.9679 9.75247 21.0399 9.72847 21.0519 9.62047C21.0279 8.92447 21.0279 8.85247 21.0279 8.28847C21.2079 8.16847 21.3039 8.09647 21.3039 8.07247C21.3039 8.06047 21.2799 8.02447 21.2319 7.98847C21.0039 7.80847 20.9319 7.76047 20.6919 7.59247C20.5479 7.72447 20.4999 7.77247 20.3559 7.92847H19.3599ZM19.3479 8.20447H20.4279V9.16447H19.3599L19.3479 8.20447ZM21.5079 9.64447C21.9039 9.20047 22.2159 8.75647 22.4439 8.28847C22.6119 8.20447 22.6599 8.16847 22.6599 8.10847C22.6599 8.02447 22.5159 7.97647 21.9279 7.83247C21.8799 8.37247 21.7719 8.73247 21.4239 9.58447L21.5079 9.64447ZM23.4039 7.85647C23.5959 8.20447 23.7879 8.66047 23.8839 9.00847C23.9559 9.30847 24.0039 9.38047 24.1119 9.38047C24.2439 9.38047 24.4119 9.08047 24.4119 8.85247C24.4119 8.57647 24.1239 8.24047 23.4879 7.78447L23.4039 7.85647ZM14.1039 4.35247C14.4399 4.64047 14.8239 5.13247 15.1239 5.66047C15.3159 5.98447 15.3279 5.99647 15.4359 5.99647C15.6039 5.99647 15.7479 5.67247 15.7479 5.27647C15.7479 5.06047 15.6519 4.92847 15.3519 4.74847C15.0519 4.56847 14.5959 4.36447 14.1639 4.20847L14.1039 4.35247ZM13.2519 6.90847C13.8279 7.46047 14.2239 7.92847 14.4759 8.36047C14.5599 8.50447 14.6199 8.55247 14.7039 8.55247C14.8599 8.55247 14.9559 8.31247 14.9559 7.94047C14.9559 7.60447 14.8479 7.43647 14.5359 7.28047C14.2239 7.10047 13.7919 6.93247 13.3239 6.80047L13.2519 6.90847ZM13.3719 11.3845C14.1879 11.6125 14.2599 11.7205 14.2599 12.6325C14.2599 12.9445 14.2359 13.3045 14.1639 13.7845C14.1399 14.0365 14.1159 14.2285 14.1159 14.3005C14.1159 14.5405 14.2239 14.7085 14.3799 14.7085C14.5599 14.7085 14.8599 14.5285 14.9919 14.3365C15.0999 14.1805 15.1479 13.9885 15.1479 13.6765C15.1479 13.4605 15.1239 13.2925 15.0039 12.8605C14.7519 11.9365 14.7519 11.9365 14.7519 11.8045C14.7519 11.7085 14.7639 11.6485 14.8479 11.2525L15.7239 7.65247L15.5679 7.61647C15.4839 7.86847 15.4839 7.86847 15.2919 8.38447C14.7759 9.81247 14.7159 9.99247 14.4639 10.6765C14.2719 11.1805 14.1879 11.2885 13.9839 11.2885C13.8639 11.2885 13.6719 11.2525 13.4199 11.1805L13.3719 11.3845ZM12.7719 31.6525C11.6679 31.0525 11.2239 30.7405 10.7439 30.1765C10.2879 29.6485 9.86792 29.0245 9.56792 28.3765C10.7199 27.5365 10.8159 27.4645 11.6679 26.7565C12.0399 26.7565 12.2079 26.7085 12.2079 26.6005C12.2079 26.4565 11.9439 26.3005 11.0319 25.9405C10.7079 26.6965 10.3119 27.2725 9.48392 28.1845C9.19592 27.5005 9.11192 27.1285 8.95592 26.0365C9.23192 25.7725 9.23192 25.7725 9.75992 25.2325C10.2759 25.1605 10.2759 25.1605 10.3359 25.1245C10.3599 25.0885 10.3839 25.0525 10.3839 25.0165C10.3839 24.8965 10.3359 24.8725 9.20792 24.5005C9.01592 24.8845 8.84792 25.1245 8.31992 25.7725C7.51592 26.7445 6.85592 27.3565 5.76392 28.1485L5.85992 28.3165C6.56792 27.9205 6.85592 27.7405 7.35992 27.3925V30.2245C7.35992 31.0285 7.35992 31.0885 7.31192 32.1205C7.31192 32.2525 7.29992 32.5045 7.28792 32.7925C7.29992 32.8645 7.33592 32.8885 7.45592 32.8885C8.00792 32.8885 8.16392 32.8405 8.16392 32.6845C8.16392 32.6605 8.16392 32.6365 8.16392 32.6125C8.12792 31.9525 8.12792 31.6645 8.12792 31.0885V30.2245L8.13992 26.7925C8.36792 26.6005 8.47592 26.5045 8.71592 26.2765C8.75192 26.5765 8.77592 26.7805 8.79992 26.8885C9.00392 28.3165 9.37592 29.3365 10.1079 30.5365C10.5879 31.3045 10.9839 31.7845 11.6559 32.3965C11.9679 31.9525 12.1719 31.8325 12.7479 31.7845L12.7719 31.6525ZM4.05992 24.2245V22.5685C4.41992 22.4485 4.59992 22.3405 4.59992 22.2685C4.59992 22.1245 4.37192 22.0765 3.24392 21.9685C3.25592 22.3405 3.25592 22.5205 3.25592 22.7485V24.2245H2.52392C2.05592 24.1885 1.74392 24.1525 1.57592 24.1285L1.70792 24.5845C2.06792 24.5125 2.24792 24.5005 2.53592 24.5005H2.97992C2.91992 26.5765 2.90792 26.7925 2.79992 27.7645C2.55992 29.8885 2.17592 31.1005 1.26392 32.5285L1.40792 32.6245C1.82792 32.2285 1.99592 32.0365 2.21192 31.7125C2.67992 31.0045 3.07592 30.0565 3.29192 29.0725C3.45992 28.3285 3.59192 27.4645 3.66392 26.4805H4.99592C4.94792 28.4245 4.76792 30.4165 4.55192 31.1245C4.46792 31.4245 4.41992 31.4845 4.25192 31.4845C4.21592 31.4845 4.05992 31.4725 3.95192 31.4605C3.23192 31.3885 3.23192 31.3885 2.70392 31.3525V31.5325C3.45992 31.7245 3.51992 31.7485 3.66392 31.8565C3.81992 31.9765 3.87992 32.1205 3.92792 32.4445C5.22392 32.2405 5.35592 31.9525 5.61992 28.7125C5.71592 27.6325 5.76392 26.9845 5.78792 26.7445C5.85992 26.6845 5.90792 26.6365 5.94392 26.6125C5.99192 26.5765 6.02792 26.5405 6.05192 26.5285C6.08792 26.4925 6.12392 26.4325 6.12392 26.3965C6.12392 26.3485 6.07592 26.2885 5.96792 26.2045C5.65592 25.9885 5.55992 25.9165 5.24792 25.7245C5.11592 25.9405 5.06792 26.0125 4.94792 26.2045H3.67592C3.72392 25.4485 3.72392 25.3885 3.74792 24.5005H6.17192C6.23192 24.5005 6.27992 24.4645 6.27992 24.4165C6.27992 24.4045 6.25592 24.3685 6.21992 24.3445C5.81192 24.0085 5.67992 23.9005 5.29592 23.5885C5.05592 23.8645 4.98392 23.9485 4.76792 24.2245H4.05992ZM7.37192 23.9845C7.67192 23.4805 7.81592 23.2165 8.12792 22.5565C8.65592 22.4725 8.72792 22.4485 8.72792 22.3405C8.72792 22.2085 8.53592 22.1485 7.35992 21.8845C7.11992 23.1805 6.62792 24.3565 5.69192 25.7965L5.82392 25.8805C6.43592 25.3525 6.69992 25.0405 7.20392 24.2605H12.4239C12.4719 24.2605 12.5199 24.2245 12.5199 24.1885C12.5199 24.1765 12.5079 24.1285 12.4719 24.0925C12.0279 23.6845 11.8839 23.5645 11.4039 23.1925C11.1039 23.5285 11.0199 23.6365 10.7319 23.9845H7.37192ZM22.4439 28.0165V27.2725C22.7679 27.1525 22.8759 27.0925 22.8759 27.0205C22.8759 26.9725 22.8159 26.9365 22.6959 26.8885C23.1879 26.5165 23.3439 26.3725 23.7159 26.0005C24.0039 25.9405 24.1599 25.9045 24.1839 25.8925C24.2199 25.8685 24.2439 25.8325 24.2439 25.8085C24.2439 25.7605 24.2079 25.7125 24.1359 25.6525L23.3799 25.0525C23.1879 25.2685 23.1279 25.3405 22.9479 25.5325H21.2559C20.9559 25.5325 20.9439 25.5325 20.4879 25.4605L20.6199 25.8685C20.8959 25.8085 20.9319 25.8085 21.2559 25.8085H22.9479C22.6239 26.3845 22.4319 26.7325 22.3719 26.8285C22.1199 26.7805 21.9999 26.7565 21.6399 26.7205C21.6879 27.3085 21.6999 27.5725 21.6999 27.8725V28.0165H20.6199C20.4039 28.0165 20.0319 27.9685 19.7919 27.9205L19.9119 28.3645C20.0559 28.3285 20.0559 28.3285 20.6199 28.2925H21.6999V30.2365C21.6999 30.3925 21.6639 30.4405 21.5439 30.4645C21.3159 30.4525 20.8239 30.4165 20.0559 30.3685V30.5245C20.9919 30.6685 21.1959 30.8005 21.2559 31.3165C21.7719 31.1845 21.8679 31.1605 22.0119 31.0645C22.2999 30.8845 22.4199 30.7045 22.4559 30.3565C22.4559 30.1525 22.4559 30.1285 22.4559 29.9605C22.4439 29.6725 22.4439 29.6485 22.4439 29.5285V28.2925H24.5199C24.6159 28.2925 24.6879 28.2565 24.6879 28.2085C24.6879 28.1845 24.6639 28.1365 24.6279 28.1005C24.2559 27.7285 24.1359 27.6205 23.7159 27.2725C23.4519 27.5845 23.3799 27.6805 23.1399 28.0165H22.4439ZM18.4839 23.9965V22.6045C18.5919 22.5565 18.6879 22.5325 18.7479 22.5205C18.8439 22.4845 18.9159 22.4605 18.9639 22.4245C18.9879 22.4005 18.9999 22.3765 18.9999 22.3525C18.9999 22.1965 18.7119 22.1245 17.6439 22.0405C17.7039 22.5925 17.7159 22.7845 17.7159 22.9885V23.9965H17.0079C16.6959 23.9965 16.4439 23.9725 16.1559 23.9125L16.2519 24.3445C16.5279 24.2965 16.7799 24.2725 17.0079 24.2725H17.4399C17.4399 25.2205 17.4159 25.7965 17.3319 26.6845C17.1519 28.3765 16.9119 29.2885 16.2279 30.6565L16.3479 30.7285C17.1159 29.8765 17.4519 29.2525 17.7759 28.0765C17.9439 27.4405 18.0519 26.8765 18.1359 26.0485H19.0239C18.9759 27.8605 18.8319 29.3245 18.6519 30.0205C18.5679 30.3085 18.4359 30.4285 18.1839 30.4285C18.1719 30.4285 18.1479 30.4285 18.1239 30.4285C18.1119 30.4285 18.0759 30.4285 18.0039 30.4285C17.8479 30.4165 17.7519 30.4165 17.1399 30.3565V30.5125C17.9079 30.6565 18.1359 30.8125 18.1479 31.2205C18.8679 31.1125 19.1559 30.9085 19.3359 30.3565C19.5039 29.8285 19.6359 28.5205 19.7679 26.2645C19.9359 26.1565 20.0799 26.0365 20.0919 25.9885C20.0919 25.9645 20.0679 25.9405 19.9719 25.8565C19.6959 25.6405 19.6119 25.5805 19.3119 25.3645C19.1679 25.5445 19.1199 25.6045 18.9639 25.7725H18.1599C18.1959 25.3165 18.2079 24.9925 18.2199 24.2725H20.2959C20.3919 24.2725 20.4639 24.2365 20.4639 24.1765C20.4639 24.1525 20.4519 24.1165 20.4279 24.0805C20.1159 23.7445 19.9959 23.6485 19.6119 23.3485C19.4079 23.6245 19.3479 23.7205 19.1199 23.9965H18.4839ZM21.3999 23.9965C21.5919 23.6725 21.6399 23.6005 22.1319 22.6765C22.4439 22.6165 22.6119 22.5325 22.6119 22.4485C22.6119 22.3525 22.4559 22.2805 21.9759 22.1485C21.8439 22.1245 21.6399 22.0645 21.3879 21.9925C21.3279 22.4605 21.2679 22.7125 21.0399 23.3485C20.7279 24.2245 20.4639 24.7525 19.9119 25.5685L20.0679 25.6525C20.6439 25.0525 20.8839 24.7645 21.2199 24.2725H24.3999C24.4599 24.2725 24.5079 24.2365 24.5079 24.1885C24.5079 24.1525 24.4959 24.1285 24.4479 24.0805C24.0759 23.7325 23.9559 23.6245 23.5719 23.2885C23.2959 23.6005 23.2119 23.6965 22.9479 23.9965H21.3999ZM13.6959 22.4485C14.1159 22.8685 14.5239 23.4445 14.8479 24.1045C15.1599 24.7285 15.1599 24.7285 15.1839 24.7765C15.2439 24.8845 15.2799 24.9205 15.3639 24.9205C15.4479 24.9205 15.5799 24.8245 15.6639 24.7045C15.7479 24.5845 15.8079 24.3085 15.8079 24.0085C15.8079 23.8285 15.6879 23.6605 15.3879 23.4085C14.8839 22.9885 14.5479 22.7485 13.8279 22.3165L13.6959 22.4485ZM13.5399 27.3565C13.8759 27.3085 14.1279 27.2725 14.2599 27.2725H15.1119V30.5245C14.4639 30.9685 13.9839 31.2325 13.4319 31.4365C13.7559 32.1085 13.9359 32.4685 13.9599 32.5285C14.0199 32.6245 14.0799 32.6725 14.1399 32.6725C14.2239 32.6725 14.2959 32.5765 14.2959 32.4325C14.2959 32.3725 14.2959 32.3725 14.2599 32.0485C14.7399 31.5445 15.0999 31.0885 15.4959 30.5245C16.1319 31.5325 16.4919 31.8925 17.1759 32.1565C17.8839 32.4325 18.8199 32.5165 21.3639 32.5165C21.8559 32.5165 22.4439 32.5045 24.0159 32.4925C24.0759 32.0605 24.3039 31.7965 24.6999 31.6765V31.5325C23.4399 31.6045 19.8159 31.7245 19.1319 31.7245C18.1599 31.7245 17.5359 31.6525 16.9959 31.4845C16.5039 31.3165 16.2159 31.0885 15.8319 30.5485V27.5485C16.1919 27.3205 16.2879 27.2365 16.2879 27.1405C16.2879 27.0925 16.2519 27.0445 16.1559 26.9845C15.8919 26.7685 15.7959 26.6965 15.4959 26.4805C15.3039 26.7085 15.2439 26.7805 15.0519 26.9965H14.2599C14.0679 26.9965 13.6359 26.9605 13.4319 26.9245L13.5399 27.3565Z" fill="white"/>
<path d="M31.5 4V36" stroke="white"/>
<path d="M38.6692 7.74727V6.48678H44.5736L59.3346 25.7259V11.7941C59.3346 9.0741 58.1294 7.7141 55.719 7.7141V6.48678H64.3434V7.74727H64.0117C62.9944 7.74727 62.1983 8.07897 61.6234 8.74239C61.0484 9.4058 60.7609 10.3236 60.7609 11.4956V31H59.2019L43.877 10.9649V25.7259C43.877 28.4016 45.2592 29.7395 48.0234 29.7395V31H38.6692V29.7395C39.797 29.7395 40.7148 29.3857 41.4224 28.678C42.1301 27.9704 42.4839 27.0527 42.4839 25.9249V9.30629C41.7983 8.59865 41.4445 8.23377 41.4224 8.21166C41.0244 7.90206 40.4826 7.74727 39.797 7.74727H38.6692ZM69.1795 26.7541L77.5386 5.95605H78.6332L87.4566 28.3795C87.7883 29.2862 88.507 29.7395 89.6127 29.7395H90.3756V31H80.5903V29.7395H81.3864C83.1113 29.7395 83.9737 29.3967 83.9737 28.7112C83.9737 28.5122 83.9295 28.3132 83.841 28.1141L81.8176 22.8732H72.0986L70.9708 25.8917C70.7717 26.4224 70.6612 26.7541 70.6391 26.8868C70.5506 27.2185 70.5064 27.5502 70.5064 27.882C70.5064 28.3685 70.7717 28.7997 71.3025 29.1756C71.8553 29.5515 72.5851 29.7395 73.4917 29.7395H74.321V31H65.4313V29.7395H65.6966C67.2225 29.7395 68.3834 28.7444 69.1795 26.7541ZM81.32 21.6127L77.041 10.6995L72.6625 21.6127H81.32ZM91.4954 7.74727V6.48678H101.812V7.74727H99.7218C98.6603 7.74727 98.1296 8.05686 98.1296 8.67605C98.1296 8.87507 98.1628 9.08516 98.2291 9.30629C98.2954 9.50532 98.406 9.74858 98.5608 10.0361L104.996 26.4888L110.701 10.799C110.812 10.4673 110.867 10.0914 110.867 9.67117C110.867 8.38857 110.204 7.74727 108.877 7.74727H107.218V6.48678H116.241V7.74727H115.544C114.24 7.74727 113.178 8.85296 112.36 11.0644L104.797 31.5639H103.57L94.912 9.67117C94.6467 8.96353 94.315 8.46597 93.9169 8.17849C93.5189 7.89101 92.966 7.74727 92.2584 7.74727H91.4954ZM117.527 7.74727V6.48678H128.838V7.74727H126.914C126.029 7.74727 125.477 7.85784 125.255 8.07897C125.056 8.278 124.957 8.72028 124.957 9.40581V27.9815C124.957 28.5122 125.001 28.8881 125.09 29.1093C125.267 29.5294 125.797 29.7395 126.682 29.7395H128.838V31H117.527V29.7395H119.683C120.435 29.7395 120.921 29.6289 121.142 29.4078C121.363 29.1867 121.474 28.7112 121.474 27.9815V9.40581C121.474 8.72028 121.375 8.28906 121.175 8.11214C120.91 7.86889 120.335 7.74727 119.451 7.74727H117.527Z" fill="white"/>
<path d="M0.126709 43.5118L0.292563 40.7898H6.14622L6.28281 43.5118H5.94134C5.72671 41.8988 5.14785 41.0923 4.20476 41.0923C4.03565 41.0923 3.91208 41.1248 3.83403 41.1898C3.76248 41.2484 3.72671 41.3589 3.72671 41.5216V47.2874C3.72671 47.515 3.8698 47.6289 4.15598 47.6289H4.88768V47.9996H1.53159V47.6289H2.36086C2.58199 47.6289 2.69256 47.5281 2.69256 47.3264V41.4728C2.69256 41.2256 2.53647 41.102 2.22427 41.102C1.30069 41.102 0.721831 41.9053 0.487685 43.5118H0.126709ZM7.71343 44.0874C7.71343 44.1134 7.76871 44.2207 7.87928 44.4094C7.93782 44.5069 7.96709 44.5947 7.96709 44.6728C7.96709 44.998 7.79798 45.1606 7.45977 45.1606C7.29066 45.1606 7.15083 45.1118 7.04026 45.0142C6.93619 44.9102 6.88416 44.7638 6.88416 44.5752C6.88416 44.237 7.07278 43.9411 7.45001 43.6874C7.82725 43.4272 8.29879 43.2972 8.86465 43.2972C9.37847 43.2972 9.78172 43.411 10.0744 43.6386C10.3736 43.8598 10.5232 44.1492 10.5232 44.5069V47.0142C10.5232 47.437 10.6533 47.6484 10.9134 47.6484C10.985 47.6484 11.05 47.6386 11.1086 47.6191C11.1736 47.5931 11.2419 47.5541 11.3134 47.502L11.4988 47.7655C11.2647 48.0126 11.0045 48.1362 10.7183 48.1362C10.2695 48.1362 9.94757 47.863 9.75245 47.3167C9.46627 47.6159 9.21912 47.8207 9.01099 47.9313C8.75733 48.0679 8.44839 48.1362 8.08416 48.1362C7.63538 48.1362 7.28416 48.0386 7.0305 47.8435C6.78335 47.6484 6.65977 47.3882 6.65977 47.063C6.65977 46.6012 6.92644 46.211 7.45977 45.8923C7.99961 45.5671 8.75083 45.3492 9.71343 45.2386V44.5557C9.71343 44.289 9.61262 44.0711 9.41099 43.902C9.21587 43.7329 8.96871 43.6484 8.66953 43.6484C8.41587 43.6484 8.19148 43.7004 7.99635 43.8045C7.80774 43.902 7.71343 43.9963 7.71343 44.0874ZM9.71343 46.224V45.5703C8.95896 45.6744 8.40936 45.8337 8.06465 46.0484C7.72644 46.2565 7.55733 46.5622 7.55733 46.9655C7.55733 47.2126 7.62237 47.4077 7.75245 47.5508C7.88904 47.6874 8.07115 47.7557 8.29879 47.7557C8.67603 47.7557 9.00448 47.6126 9.28416 47.3264C9.57034 47.0337 9.71343 46.6663 9.71343 46.224ZM13.0649 40.6923C13.2145 40.6923 13.3446 40.7476 13.4552 40.8581C13.5657 40.9687 13.621 41.102 13.621 41.2581C13.621 41.4077 13.569 41.5346 13.4649 41.6386C13.3609 41.7427 13.2308 41.7947 13.0747 41.7947C12.9186 41.7947 12.7885 41.7427 12.6844 41.6386C12.5804 41.5346 12.5283 41.4077 12.5283 41.2581C12.5283 41.1085 12.5804 40.9785 12.6844 40.8679C12.795 40.7508 12.9218 40.6923 13.0649 40.6923ZM11.8064 43.7947V43.424L13.621 43.3459V47.2972C13.621 47.5183 13.7414 47.6289 13.982 47.6289H14.4991V47.9996H11.904V47.6289H12.382C12.6682 47.6289 12.8113 47.4923 12.8113 47.2191V44.3411C12.8113 43.9768 12.6031 43.7947 12.1869 43.7947H11.8064ZM14.7361 43.7655V43.424H16.7459V43.7655H16.4727C16.2386 43.7655 16.1215 43.8403 16.1215 43.9898C16.1215 44.0159 16.1247 44.0451 16.1312 44.0776C16.1443 44.1297 16.1573 44.1752 16.1703 44.2142L17.1947 46.7996L18.0825 44.3411C17.9719 44.1069 17.8776 43.9573 17.7995 43.8923C17.6955 43.8077 17.5166 43.7655 17.263 43.7655V43.424H19.4776V43.7655H19.2825C19.1264 43.7655 19.0125 43.7817 18.941 43.8142C18.876 43.8403 18.8434 43.902 18.8434 43.9996C18.8434 44.0711 18.8564 44.1427 18.8825 44.2142L19.9264 46.7996L20.7556 44.5069C20.7686 44.4679 20.7849 44.4061 20.8044 44.3216C20.8239 44.2305 20.8337 44.1622 20.8337 44.1167C20.8337 43.9931 20.7817 43.9053 20.6776 43.8533C20.58 43.7947 20.4272 43.7655 20.2191 43.7655V43.424H22.0142V43.7655C21.793 43.8045 21.6239 43.8728 21.5069 43.9703C21.3898 44.0679 21.2955 44.224 21.2239 44.4386L19.8873 48.1362H19.6044L18.3166 44.9362L17.1654 48.1362H16.8825L15.2532 44.0972C15.1947 43.9606 15.1296 43.8728 15.0581 43.8337C14.993 43.7882 14.8857 43.7655 14.7361 43.7655ZM23.4556 44.0874C23.4556 44.1134 23.5109 44.2207 23.6215 44.4094C23.68 44.5069 23.7093 44.5947 23.7093 44.6728C23.7093 44.998 23.5402 45.1606 23.202 45.1606C23.0329 45.1606 22.893 45.1118 22.7825 45.0142C22.6784 44.9102 22.6264 44.7638 22.6264 44.5752C22.6264 44.237 22.815 43.9411 23.1922 43.6874C23.5695 43.4272 24.041 43.2972 24.6069 43.2972C25.1207 43.2972 25.5239 43.411 25.8166 43.6386C26.1158 43.8598 26.2654 44.1492 26.2654 44.5069V47.0142C26.2654 47.437 26.3955 47.6484 26.6556 47.6484C26.7272 47.6484 26.7922 47.6386 26.8508 47.6191C26.9158 47.5931 26.9841 47.5541 27.0556 47.502L27.241 47.7655C27.0069 48.0126 26.7467 48.1362 26.4605 48.1362C26.0117 48.1362 25.6898 47.863 25.4947 47.3167C25.2085 47.6159 24.9613 47.8207 24.7532 47.9313C24.4995 48.0679 24.1906 48.1362 23.8264 48.1362C23.3776 48.1362 23.0264 48.0386 22.7727 47.8435C22.5256 47.6484 22.402 47.3882 22.402 47.063C22.402 46.6012 22.6686 46.211 23.202 45.8923C23.7418 45.5671 24.493 45.3492 25.4556 45.2386V44.5557C25.4556 44.289 25.3548 44.0711 25.1532 43.902C24.9581 43.7329 24.7109 43.6484 24.4117 43.6484C24.1581 43.6484 23.9337 43.7004 23.7386 43.8045C23.5499 43.902 23.4556 43.9963 23.4556 44.0874ZM25.4556 46.224V45.5703C24.7012 45.6744 24.1516 45.8337 23.8069 46.0484C23.4686 46.2565 23.2995 46.5622 23.2995 46.9655C23.2995 47.2126 23.3646 47.4077 23.4947 47.5508C23.6312 47.6874 23.8134 47.7557 24.041 47.7557C24.4182 47.7557 24.7467 47.6126 25.0264 47.3264C25.3125 47.0337 25.4556 46.6663 25.4556 46.224ZM27.5974 43.7459V43.424L29.1193 43.3459C29.1648 43.5541 29.1974 43.7394 29.2169 43.902C29.2429 44.0581 29.2559 44.2045 29.2559 44.3411C29.6592 43.6776 30.2153 43.3459 30.9242 43.3459C31.3795 43.3459 31.734 43.489 31.9876 43.7752C32.2413 44.0614 32.3681 44.4549 32.3681 44.9557V47.1801C32.3681 47.3427 32.4006 47.4598 32.4657 47.5313C32.5372 47.5963 32.664 47.6289 32.8461 47.6289H33.1779V47.9996H30.7583V47.6289H30.9827C31.3665 47.6289 31.5583 47.4923 31.5583 47.2191V45.2679C31.5583 44.3443 31.2169 43.8825 30.534 43.8825C30.1762 43.8825 29.8738 44.0289 29.6266 44.3216C29.3795 44.6142 29.2559 45.0012 29.2559 45.4825V47.1801C29.2559 47.3492 29.2917 47.4663 29.3632 47.5313C29.4348 47.5963 29.5648 47.6289 29.7535 47.6289H30.0657V47.9996H27.6461V47.6289H27.9583C28.2835 47.6289 28.4461 47.515 28.4461 47.2874V44.3411C28.4461 43.9443 28.2445 43.7459 27.8413 43.7459H27.5974ZM37.4509 43.5118L37.6168 40.7898H43.4705L43.607 43.5118H43.2656C43.0509 41.8988 42.4721 41.0923 41.529 41.0923C41.3599 41.0923 41.2363 41.1248 41.1583 41.1898C41.0867 41.2484 41.0509 41.3589 41.0509 41.5216V47.2874C41.0509 47.515 41.194 47.6289 41.4802 47.6289H42.2119V47.9996H38.8558V47.6289H39.6851C39.9062 47.6289 40.0168 47.5281 40.0168 47.3264V41.4728C40.0168 41.2256 39.8607 41.102 39.5485 41.102C38.6249 41.102 38.0461 41.9053 37.8119 43.5118H37.4509ZM46.0425 43.2874C46.6669 43.2874 47.184 43.5118 47.5938 43.9606C48.01 44.4094 48.2182 44.998 48.2182 45.7264C48.2182 46.4419 48.0068 47.024 47.584 47.4728C47.1612 47.915 46.6442 48.1362 46.0328 48.1362C45.4214 48.1362 44.9108 47.9118 44.5011 47.463C44.0978 47.0077 43.8962 46.4256 43.8962 45.7167C43.8962 45.0077 44.0978 44.4256 44.5011 43.9703C44.9043 43.515 45.4182 43.2874 46.0425 43.2874ZM46.0425 43.6386C45.6458 43.6386 45.3369 43.8142 45.1157 44.1655C44.9011 44.5102 44.7938 45.011 44.7938 45.6679C44.7938 46.3638 44.9011 46.8907 45.1157 47.2484C45.3303 47.6061 45.6425 47.785 46.0523 47.785C46.4621 47.785 46.7743 47.6029 46.9889 47.2386C47.21 46.8744 47.3206 46.3443 47.3206 45.6484C47.3206 44.9915 47.2068 44.4939 46.9791 44.1557C46.758 43.811 46.4458 43.6386 46.0425 43.6386ZM48.5252 43.424L50.1447 43.3459V46.3703C50.1447 46.7346 50.2358 47.024 50.4179 47.2386C50.6065 47.4468 50.8504 47.5508 51.1496 47.5508C51.5073 47.5508 51.813 47.4012 52.0666 47.102C52.3268 46.7963 52.4569 46.4256 52.4569 45.9898V44.2728C52.4569 44.0776 52.3919 43.9476 52.2618 43.8825C52.1317 43.811 51.9301 43.7752 51.6569 43.7752V43.424L53.2666 43.3459V47.102C53.2666 47.4533 53.4488 47.6289 53.813 47.6289H54.1057V47.9606L52.5642 47.9996L52.4666 47.102C52.1935 47.4207 51.9171 47.6646 51.6374 47.8337C51.3642 47.9963 51.0845 48.0776 50.7984 48.0776C50.3301 48.0776 49.9691 47.9248 49.7154 47.6191C49.4618 47.3069 49.3349 46.8549 49.3349 46.263V44.2728C49.3349 44.0842 49.2634 43.9541 49.1203 43.8825C48.9837 43.811 48.7853 43.7752 48.5252 43.7752V43.424ZM54.365 43.7752V43.424L56.004 43.3459V45.1898C56.1861 44.572 56.4008 44.1102 56.6479 43.8045C56.8951 43.4988 57.2008 43.3459 57.565 43.3459C57.8122 43.3459 58.0073 43.424 58.1504 43.5801C58.3 43.7297 58.3748 43.9378 58.3748 44.2045C58.3748 44.3866 58.326 44.5362 58.2284 44.6533C58.1309 44.7703 58.004 44.8289 57.8479 44.8289C57.7048 44.8289 57.5878 44.7801 57.4967 44.6825C57.4122 44.5785 57.3699 44.4451 57.3699 44.2825C57.3699 44.1915 57.3926 44.0972 57.4382 43.9996C57.4837 43.902 57.5065 43.8435 57.5065 43.824C57.5065 43.811 57.4935 43.798 57.4674 43.785C57.4609 43.785 57.4447 43.7817 57.4187 43.7752C57.139 43.7752 56.8528 44.0484 56.5601 44.5947C56.2739 45.1346 56.1309 45.7069 56.1309 46.3118V47.2874C56.1309 47.515 56.3032 47.6289 56.6479 47.6289H57.2333V47.9996H54.3943V47.6289H54.843C55.1617 47.6289 55.3211 47.5248 55.3211 47.3167V44.4094C55.3211 43.9866 55.1357 43.7752 54.765 43.7752H54.365ZM59.9204 40.6923C60.07 40.6923 60.2001 40.7476 60.3106 40.8581C60.4212 40.9687 60.4765 41.102 60.4765 41.2581C60.4765 41.4077 60.4245 41.5346 60.3204 41.6386C60.2163 41.7427 60.0863 41.7947 59.9302 41.7947C59.7741 41.7947 59.644 41.7427 59.5399 41.6386C59.4359 41.5346 59.3838 41.4077 59.3838 41.2581C59.3838 41.1085 59.4359 40.9785 59.5399 40.8679C59.6505 40.7508 59.7773 40.6923 59.9204 40.6923ZM58.6619 43.7947V43.424L60.4765 43.3459V47.2972C60.4765 47.5183 60.5968 47.6289 60.8375 47.6289H61.3545V47.9996H58.7594V47.6289H59.2375C59.5237 47.6289 59.6667 47.4923 59.6667 47.2191V44.3411C59.6667 43.9768 59.4586 43.7947 59.0424 43.7947H58.6619ZM61.6794 46.2825H62.0013C62.19 46.8094 62.4111 47.1931 62.6648 47.4337C62.9184 47.6679 63.2534 47.785 63.6696 47.785C64.0013 47.785 64.2648 47.7102 64.4599 47.5606C64.6615 47.4045 64.7623 47.2061 64.7623 46.9655C64.7623 46.5817 64.5249 46.3476 64.0501 46.263L62.7916 45.9898C62.4729 45.9118 62.2192 45.7622 62.0306 45.5411C61.8485 45.3199 61.7574 45.0663 61.7574 44.7801C61.7574 44.3898 61.8973 44.0549 62.177 43.7752C62.4631 43.489 62.8404 43.3459 63.3087 43.3459C63.7119 43.3459 64.0794 43.4695 64.4111 43.7167L64.7331 43.3752H64.9379L65.055 45.0045H64.7331C64.5965 44.5622 64.4111 44.2337 64.177 44.0191C63.9428 43.8045 63.6371 43.6972 63.2599 43.6972C62.9477 43.6972 62.7005 43.7752 62.5184 43.9313C62.3428 44.0809 62.255 44.2663 62.255 44.4874C62.255 44.8776 62.9184 45.1898 64.2453 45.424C64.5705 45.476 64.8339 45.6191 65.0355 45.8533C65.2371 46.0874 65.3379 46.3638 65.3379 46.6825C65.3379 47.1053 65.1786 47.4533 64.8599 47.7264C64.5412 47.9996 64.1412 48.1362 63.6599 48.1362C63.4062 48.1362 63.1818 48.1004 62.9867 48.0289C62.7981 47.9638 62.5997 47.85 62.3916 47.6874L62.0404 48.0972H61.777L61.6794 46.2825ZM70.0345 45.2776V47.2386C70.0345 47.4988 70.1808 47.6289 70.4735 47.6289H70.7857V47.9996H68.4735V47.6289H68.7272C69.0589 47.6289 69.2247 47.515 69.2247 47.2874V45.1801C69.2247 44.3281 68.9321 43.902 68.3467 43.902C68.002 43.902 67.7191 44.0451 67.4979 44.3313C67.2768 44.6175 67.1662 44.9817 67.1662 45.424V47.2386C67.1662 47.3817 67.202 47.4825 67.2735 47.5411C67.3451 47.5996 67.4752 47.6289 67.6638 47.6289H67.8979V47.9996H65.5955V47.6289H65.9467C66.2199 47.6289 66.3565 47.515 66.3565 47.2874V44.2923C66.3565 44.1037 66.3077 43.9768 66.2101 43.9118C66.1191 43.8403 65.9532 43.7915 65.7126 43.7655V43.424L67.0199 43.3459C67.0524 43.4955 67.0849 43.6646 67.1174 43.8533C67.15 44.0419 67.1662 44.198 67.1662 44.3216C67.4004 43.9833 67.6345 43.7362 67.8686 43.5801C68.1093 43.424 68.3922 43.3459 68.7174 43.3459C69.3548 43.3459 69.7711 43.6972 69.9662 44.3996C70.4085 43.6972 70.9516 43.3459 71.5955 43.3459C72.0052 43.3459 72.3272 43.489 72.5613 43.7752C72.7955 44.0614 72.9126 44.4614 72.9126 44.9752V47.2386C72.9126 47.4988 73.0817 47.6289 73.4199 47.6289H73.6443V47.9996H71.3516V47.6289H71.5662C71.9239 47.6289 72.1028 47.4988 72.1028 47.2386V44.9752C72.1028 44.6435 72.0215 44.3833 71.8589 44.1947C71.6963 44.0061 71.4752 43.9118 71.1955 43.9118C70.8638 43.9118 70.5873 44.0581 70.3662 44.3508C70.1451 44.637 70.0345 44.9459 70.0345 45.2776ZM81.3051 40.624C82.2742 40.624 83.0839 40.9785 83.7343 41.6874C84.3847 42.3963 84.71 43.3004 84.71 44.3996C84.71 45.4923 84.3847 46.3931 83.7343 47.102C83.0839 47.811 82.2904 48.1655 81.3539 48.1655C80.4173 48.1655 79.627 47.8077 78.9831 47.0923C78.3392 46.3768 78.0173 45.4695 78.0173 44.3703C78.0173 43.2972 78.3392 42.4061 78.9831 41.6972C79.6335 40.9817 80.4075 40.624 81.3051 40.624ZM81.3831 41.0045C80.9929 41.0045 80.6417 41.1085 80.3295 41.3167C80.0238 41.5248 79.7799 41.824 79.5978 42.2142C79.4807 42.4549 79.3929 42.7606 79.3343 43.1313C79.2758 43.502 79.2465 43.9118 79.2465 44.3606C79.2465 46.6435 79.949 47.785 81.3539 47.785C82.0368 47.785 82.5604 47.502 82.9246 46.9362C83.2953 46.3703 83.4807 45.5378 83.4807 44.4386C83.4807 42.1492 82.7815 41.0045 81.3831 41.0045ZM86.7852 42.4191V43.424H87.9267V43.8533H86.7852V47.1898C86.7852 47.4825 86.9576 47.6289 87.3023 47.6289H87.9267V47.9996H85.1267V47.6289H85.5169C85.6795 47.6289 85.7966 47.6029 85.8681 47.5508C85.9397 47.4988 85.9754 47.4045 85.9754 47.2679V43.8533H85.1852V43.424H85.9754V43.0825C85.9754 42.3085 86.1348 41.7004 86.4535 41.2581C86.7787 40.8159 87.2047 40.5947 87.7315 40.5947C88.0893 40.5947 88.3722 40.6825 88.5803 40.8581C88.7885 41.0337 88.8925 41.2711 88.8925 41.5703C88.8925 41.7589 88.847 41.9085 88.7559 42.0191C88.6649 42.1297 88.538 42.185 88.3754 42.185C88.2389 42.185 88.125 42.1427 88.034 42.0581C87.9429 41.9736 87.8974 41.8565 87.8974 41.7069C87.8974 41.5963 87.9332 41.4955 88.0047 41.4045C88.0372 41.3655 88.1055 41.3004 88.2096 41.2094L88.2193 41.1703C88.2193 41.1118 88.1738 41.0598 88.0828 41.0142C87.9982 40.9687 87.8941 40.9459 87.7706 40.9459C87.4714 40.9459 87.2307 41.0728 87.0486 41.3264C86.873 41.5801 86.7852 41.9443 86.7852 42.4191ZM90.252 42.4191V43.424H91.3935V43.8533H90.252V47.1898C90.252 47.4825 90.4244 47.6289 90.7691 47.6289H91.3935V47.9996H88.5935V47.6289H88.9837C89.1463 47.6289 89.2634 47.6029 89.3349 47.5508C89.4065 47.4988 89.4422 47.4045 89.4422 47.2679V43.8533H88.652V43.424H89.4422V43.0825C89.4422 42.3085 89.6016 41.7004 89.9203 41.2581C90.2455 40.8159 90.6715 40.5947 91.1983 40.5947C91.5561 40.5947 91.839 40.6825 92.0471 40.8581C92.2552 41.0337 92.3593 41.2711 92.3593 41.5703C92.3593 41.7589 92.3138 41.9085 92.2227 42.0191C92.1317 42.1297 92.0048 42.185 91.8422 42.185C91.7057 42.185 91.5918 42.1427 91.5008 42.0581C91.4097 41.9736 91.3642 41.8565 91.3642 41.7069C91.3642 41.5963 91.4 41.4955 91.4715 41.4045C91.504 41.3655 91.5723 41.3004 91.6764 41.2094L91.6861 41.1703C91.6861 41.1118 91.6406 41.0598 91.5496 41.0142C91.465 40.9687 91.3609 40.9459 91.2374 40.9459C90.9382 40.9459 90.6975 41.0728 90.5154 41.3264C90.3398 41.5801 90.252 41.9443 90.252 42.4191ZM93.27 40.6923C93.4196 40.6923 93.5497 40.7476 93.6603 40.8581C93.7708 40.9687 93.8261 41.102 93.8261 41.2581C93.8261 41.4077 93.7741 41.5346 93.67 41.6386C93.5659 41.7427 93.4359 41.7947 93.2798 41.7947C93.1237 41.7947 92.9936 41.7427 92.8895 41.6386C92.7855 41.5346 92.7334 41.4077 92.7334 41.2581C92.7334 41.1085 92.7855 40.9785 92.8895 40.8679C93.0001 40.7508 93.1269 40.6923 93.27 40.6923ZM92.0115 43.7947V43.424L93.8261 43.3459V47.2972C93.8261 47.5183 93.9464 47.6289 94.1871 47.6289H94.7042V47.9996H92.109V47.6289H92.5871C92.8733 47.6289 93.0164 47.4923 93.0164 47.2191V44.3411C93.0164 43.9768 92.8082 43.7947 92.392 43.7947H92.0115ZM98.5217 46.6435L98.8339 46.7313C98.6843 47.1801 98.4664 47.5281 98.1802 47.7752C97.894 48.0159 97.5493 48.1362 97.1461 48.1362C96.5152 48.1362 95.9981 47.9281 95.5949 47.5118C95.1916 47.0955 94.99 46.5329 94.99 45.824C94.99 45.063 95.1981 44.4516 95.6144 43.9898C96.0371 43.5216 96.5737 43.2874 97.2241 43.2874C97.6664 43.2874 98.0404 43.4142 98.3461 43.6679C98.6323 43.902 98.7753 44.1752 98.7753 44.4874C98.7753 44.663 98.7201 44.8126 98.6095 44.9362C98.4989 45.0598 98.3688 45.1216 98.2193 45.1216C98.0827 45.1216 97.9623 45.0728 97.8583 44.9752C97.7542 44.8776 97.7022 44.7508 97.7022 44.5947C97.7022 44.4907 97.7347 44.3866 97.7997 44.2825C97.8258 44.2435 97.8713 44.1785 97.9363 44.0874L97.9461 44.0484C97.9461 43.9443 97.881 43.85 97.751 43.7655C97.6209 43.6809 97.4518 43.6386 97.2436 43.6386C96.8144 43.6386 96.4827 43.8207 96.2485 44.185C96.0144 44.5492 95.8973 45.0663 95.8973 45.7362C95.8973 46.3541 96.0209 46.8354 96.268 47.1801C96.5152 47.5248 96.8469 47.6972 97.2632 47.6972C97.829 47.6972 98.2485 47.3459 98.5217 46.6435ZM100.458 40.6923C100.607 40.6923 100.737 40.7476 100.848 40.8581C100.958 40.9687 101.014 41.102 101.014 41.2581C101.014 41.4077 100.962 41.5346 100.858 41.6386C100.754 41.7427 100.623 41.7947 100.467 41.7947C100.311 41.7947 100.181 41.7427 100.077 41.6386C99.973 41.5346 99.9209 41.4077 99.9209 41.2581C99.9209 41.1085 99.973 40.9785 100.077 40.8679C100.188 40.7508 100.315 40.6923 100.458 40.6923ZM99.199 43.7947V43.424L101.014 43.3459V47.2972C101.014 47.5183 101.134 47.6289 101.375 47.6289H101.892V47.9996H99.2965V47.6289H99.7746C100.061 47.6289 100.204 47.4923 100.204 47.2191V44.3411C100.204 43.9768 99.9957 43.7947 99.5795 43.7947H99.199ZM103.348 44.0874C103.348 44.1134 103.404 44.2207 103.514 44.4094C103.573 44.5069 103.602 44.5947 103.602 44.6728C103.602 44.998 103.433 45.1606 103.095 45.1606C102.926 45.1606 102.786 45.1118 102.675 45.0142C102.571 44.9102 102.519 44.7638 102.519 44.5752C102.519 44.237 102.708 43.9411 103.085 43.6874C103.462 43.4272 103.934 43.2972 104.5 43.2972C105.013 43.2972 105.417 43.411 105.709 43.6386C106.008 43.8598 106.158 44.1492 106.158 44.5069V47.0142C106.158 47.437 106.288 47.6484 106.548 47.6484C106.62 47.6484 106.685 47.6386 106.743 47.6191C106.808 47.5931 106.877 47.5541 106.948 47.502L107.134 47.7655C106.9 48.0126 106.639 48.1362 106.353 48.1362C105.904 48.1362 105.582 47.863 105.387 47.3167C105.101 47.6159 104.854 47.8207 104.646 47.9313C104.392 48.0679 104.083 48.1362 103.719 48.1362C103.27 48.1362 102.919 48.0386 102.665 47.8435C102.418 47.6484 102.295 47.3882 102.295 47.063C102.295 46.6012 102.561 46.211 103.095 45.8923C103.634 45.5671 104.386 45.3492 105.348 45.2386V44.5557C105.348 44.289 105.248 44.0711 105.046 43.902C104.851 43.7329 104.604 43.6484 104.304 43.6484C104.051 43.6484 103.826 43.7004 103.631 43.8045C103.443 43.902 103.348 43.9963 103.348 44.0874ZM105.348 46.224V45.5703C104.594 45.6744 104.044 45.8337 103.7 46.0484C103.361 46.2565 103.192 46.5622 103.192 46.9655C103.192 47.2126 103.257 47.4077 103.387 47.5508C103.524 47.6874 103.706 47.7557 103.934 47.7557C104.311 47.7557 104.639 47.6126 104.919 47.3264C105.205 47.0337 105.348 46.6663 105.348 46.224ZM107.461 40.7898L109.266 40.6923V47.3167C109.266 47.4077 109.301 47.4825 109.373 47.5411C109.445 47.5996 109.536 47.6289 109.646 47.6289H110.124V47.9996H107.539V47.6289H107.997C108.303 47.6289 108.456 47.4923 108.456 47.2191V41.6679C108.456 41.5053 108.404 41.3785 108.3 41.2874C108.196 41.1963 108.053 41.1508 107.871 41.1508H107.461V40.7898ZM114.492 45.2874H114.843C114.973 46.0419 115.272 46.6468 115.741 47.102C116.209 47.5573 116.752 47.785 117.37 47.785C117.845 47.785 118.235 47.6451 118.541 47.3655C118.846 47.0793 118.999 46.7346 118.999 46.3313C118.999 46.0126 118.889 45.7459 118.668 45.5313C118.446 45.3102 118.134 45.1541 117.731 45.063C116.918 44.8809 116.342 44.7281 116.004 44.6045C115.503 44.4224 115.152 44.2077 114.951 43.9606C114.716 43.6744 114.599 43.2809 114.599 42.7801C114.599 42.1622 114.801 41.6484 115.204 41.2386C115.607 40.8289 116.118 40.624 116.736 40.624C117.074 40.624 117.377 40.6825 117.643 40.7996C117.916 40.9167 118.19 41.0923 118.463 41.3264L118.911 40.6923H119.263L119.292 43.3362H118.97C118.586 41.7817 117.838 41.0045 116.726 41.0045C116.29 41.0045 115.933 41.1346 115.653 41.3947C115.38 41.6484 115.243 41.9573 115.243 42.3216C115.243 42.6923 115.37 42.985 115.624 43.1996C115.819 43.3687 116.316 43.5443 117.116 43.7264C117.923 43.9085 118.495 44.1037 118.833 44.3118C119.406 44.663 119.692 45.1833 119.692 45.8728C119.692 46.5232 119.474 47.063 119.038 47.4923C118.603 47.9216 118.033 48.1362 117.331 48.1362C116.596 48.1362 115.949 47.8955 115.39 47.4142L114.843 48.0874H114.492V45.2874ZM121.268 40.6923C121.418 40.6923 121.548 40.7476 121.658 40.8581C121.769 40.9687 121.824 41.102 121.824 41.2581C121.824 41.4077 121.772 41.5346 121.668 41.6386C121.564 41.7427 121.434 41.7947 121.278 41.7947C121.122 41.7947 120.992 41.7427 120.888 41.6386C120.784 41.5346 120.732 41.4077 120.732 41.2581C120.732 41.1085 120.784 40.9785 120.888 40.8679C120.998 40.7508 121.125 40.6923 121.268 40.6923ZM120.01 43.7947V43.424L121.824 43.3459V47.2972C121.824 47.5183 121.945 47.6289 122.185 47.6289H122.702V47.9996H120.107V47.6289H120.585C120.871 47.6289 121.015 47.4923 121.015 47.2191V44.3411C121.015 43.9768 120.806 43.7947 120.39 43.7947H120.01ZM122.969 43.8728V43.5313C123.821 43.3882 124.247 42.7346 124.247 41.5703H124.578V43.424H126.061V43.8728H124.578V46.8094C124.578 47.0565 124.637 47.2516 124.754 47.3947C124.871 47.5378 125.034 47.6094 125.242 47.6094C125.495 47.6094 125.694 47.4955 125.837 47.2679C125.987 47.0403 126.061 46.7085 126.061 46.2728H126.393C126.393 46.8581 126.263 47.3069 126.003 47.6191C125.749 47.9248 125.404 48.0776 124.969 48.0776C124.598 48.0776 124.305 47.9768 124.091 47.7752C123.876 47.5736 123.769 47.2939 123.769 46.9362V43.8728H122.969ZM130.621 46.6142L130.943 46.7508C130.468 47.6744 129.782 48.1362 128.884 48.1362C128.267 48.1362 127.749 47.9183 127.333 47.4825C126.923 47.0403 126.719 46.4711 126.719 45.7752C126.719 45.0403 126.92 44.4419 127.323 43.9801C127.727 43.5183 128.237 43.2874 128.855 43.2874C129.48 43.2874 129.977 43.5085 130.348 43.9508C130.725 44.3866 130.914 44.9915 130.914 45.7655H127.636C127.636 46.0191 127.652 46.2435 127.684 46.4386C127.717 46.6337 127.772 46.8029 127.85 46.9459C128.117 47.4468 128.53 47.6972 129.089 47.6972C129.727 47.6972 130.237 47.3362 130.621 46.6142ZM127.636 45.3947H129.616C129.863 45.3947 129.987 45.2321 129.987 44.9069C129.987 44.5427 129.876 44.2337 129.655 43.9801C129.441 43.7199 129.177 43.5898 128.865 43.5898C128.501 43.5898 128.205 43.7492 127.977 44.0679C127.749 44.3866 127.636 44.8289 127.636 45.3947Z" fill="white"/>
</svg>
