<svg width="24" height="24" viewBox="0 0 24 24" fill="none" xmlns="http://www.w3.org/2000/svg">
<path d="M2 5.5C2 5.36739 2.10536 5.24021 2.29289 5.14645C2.48043 5.05268 2.73478 5 3 5H21C21.2652 5 21.5196 5.05268 21.7071 5.14645C21.8946 5.24021 22 5.36739 22 5.5C22 5.63261 21.8946 5.75979 21.7071 5.85355C21.5196 5.94732 21.2652 6 21 6H3C2.73478 6 2.48043 5.94732 2.29289 5.85355C2.10536 5.75979 2 5.63261 2 5.5Z" fill="black" fill-opacity="0.9"/>
<path d="M2 11.532C2 11.3994 2.10536 11.2722 2.29289 11.1784C2.48043 11.0847 2.73478 11.032 3 11.032H21C21.2652 11.032 21.5196 11.0847 21.7071 11.1784C21.8946 11.2722 22 11.3994 22 11.532C22 11.6646 21.8946 11.7918 21.7071 11.8856C21.5196 11.9793 21.2652 12.032 21 12.032H3C2.73478 12.032 2.48043 11.9793 2.29289 11.8856C2.10536 11.7918 2 11.6646 2 11.532Z" fill="black" fill-opacity="0.9"/>
<path d="M3 17.064C2.73478 17.064 2.48043 17.1167 2.29289 17.2104C2.10536 17.3042 2 17.4314 2 17.564C2 17.6966 2.10536 17.8238 2.29289 17.9175C2.48043 18.0113 2.73478 18.064 3 18.064H21C21.2652 18.064 21.5196 18.0113 21.7071 17.9175C21.8946 17.8238 22 17.6966 22 17.564C22 17.4314 21.8946 17.3042 21.7071 17.2104C21.5196 17.1167 21.2652 17.064 21 17.064H3Z" fill="black" fill-opacity="0.9"/>
</svg>
