<svg width="46" height="46" viewBox="0 0 46 46" fill="none" xmlns="http://www.w3.org/2000/svg">
<path d="M21.16 33.12C14.536 33.12 9.19995 27.784 9.19995 21.16C9.19995 14.536 14.536 9.2 21.16 9.2C27.784 9.2 33.12 14.536 33.12 21.16C33.12 27.784 27.784 33.12 21.16 33.12ZM21.16 11.04C15.548 11.04 11.04 15.548 11.04 21.16C11.04 26.772 15.548 31.28 21.16 31.28C26.772 31.28 31.28 26.772 31.28 21.16C31.28 15.548 26.772 11.04 21.16 11.04Z" fill="black" fill-opacity="0.9"/>
<path d="M30.0675 28.7656L38.3291 37.0272L37.0282 38.3281L28.7666 30.0665L30.0675 28.7656Z" fill="black" fill-opacity="0.9"/>
</svg>
