<svg width="50" height="50" viewBox="0 0 50 50" fill="white" xmlns="http://www.w3.org/2000/svg">
<path d="M25 10.9375C22.2187 10.9375 19.4999 11.7623 17.1873 13.3075C14.8747 14.8527 13.0723 17.0489 12.0079 19.6185C10.9436 22.1881 10.6651 25.0156 11.2077 27.7435C11.7503 30.4713 13.0896 32.977 15.0563 34.9437C17.023 36.9104 19.5287 38.2497 22.2565 38.7923C24.9844 39.3349 27.8119 39.0564 30.3815 37.9921C32.9511 36.9277 35.1473 35.1253 36.6925 32.8127C38.2378 30.5001 39.0625 27.7813 39.0625 25C39.0583 21.2717 37.5754 17.6973 34.9391 15.0609C32.3027 12.4246 28.7283 10.9417 25 10.9375ZM25 34.375C23.1458 34.375 21.3332 33.8252 19.7915 32.795C18.2498 31.7649 17.0482 30.3007 16.3386 28.5877C15.6291 26.8746 15.4434 24.9896 15.8051 23.171C16.1669 21.3525 17.0598 19.682 18.3709 18.3709C19.682 17.0598 21.3525 16.1669 23.171 15.8051C24.9896 15.4434 26.8746 15.6291 28.5877 16.3386C30.3007 17.0482 31.7649 18.2498 32.795 19.7915C33.8252 21.3332 34.375 23.1458 34.375 25C34.3722 27.4855 33.3836 29.8685 31.626 31.626C29.8685 33.3836 27.4855 34.3722 25 34.375ZM22.6562 5.46875V2.34375C22.6562 1.72215 22.9032 1.12601 23.3427 0.686468C23.7823 0.24693 24.3784 0 25 0C25.6216 0 26.2177 0.24693 26.6573 0.686468C27.0968 1.12601 27.3438 1.72215 27.3438 2.34375V5.46875C27.3438 6.09035 27.0968 6.68649 26.6573 7.12603C26.2177 7.56557 25.6216 7.8125 25 7.8125C24.3784 7.8125 23.7823 7.56557 23.3427 7.12603C22.9032 6.68649 22.6562 6.09035 22.6562 5.46875ZM37.1533 12.8465C36.7138 12.407 36.4669 11.8108 36.4669 11.1893C36.4669 10.5677 36.7138 9.97157 37.1533 9.53203L39.3633 7.32227C39.5803 7.10172 39.8388 6.92631 40.1239 6.80617C40.409 6.68603 40.7151 6.62353 41.0245 6.62227C41.3339 6.62101 41.6404 6.68101 41.9265 6.79883C42.2126 6.91665 42.4725 7.08994 42.6913 7.30871C42.9101 7.52749 43.0834 7.78741 43.2012 8.07349C43.319 8.35957 43.379 8.66615 43.3777 8.97554C43.3765 9.28493 43.314 9.59101 43.1938 9.87612C43.0737 10.1612 42.8983 10.4197 42.6777 10.6367L40.4682 12.8465C40.0286 13.286 39.4325 13.5329 38.8109 13.5329C38.1894 13.5329 37.5932 13.286 37.1537 12.8465H37.1533ZM50 25C50 25.6216 49.7531 26.2177 49.3135 26.6573C48.874 27.0968 48.2779 27.3438 47.6562 27.3438H44.5312C43.9096 27.3438 43.3135 27.0968 42.874 26.6573C42.4344 26.2177 42.1875 25.6216 42.1875 25C42.1875 24.3784 42.4344 23.7823 42.874 23.3427C43.3135 22.9032 43.9096 22.6562 44.5312 22.6562H47.6562C48.2779 22.6562 48.874 22.9032 49.3135 23.3427C49.7531 23.7823 50 24.3784 50 25ZM42.6777 39.3633C43.1114 39.804 43.3533 40.3983 43.3507 41.0166C43.3482 41.6348 43.1015 42.2271 42.6643 42.6643C42.2271 43.1015 41.6348 43.3482 41.0166 43.3507C40.3983 43.3533 39.804 43.1114 39.3633 42.6777L37.1533 40.468C36.9328 40.251 36.7574 39.9925 36.6372 39.7074C36.5171 39.4223 36.4546 39.1162 36.4533 38.8068C36.4521 38.4974 36.5121 38.1908 36.6299 37.9047C36.7477 37.6187 36.921 37.3587 37.1398 37.14C37.3585 36.9212 37.6185 36.7479 37.9045 36.6301C38.1906 36.5123 38.4972 36.4523 38.8066 36.4535C39.116 36.4548 39.4221 36.5173 39.7072 36.6374C39.9923 36.7576 40.2508 36.933 40.4678 37.1535L42.6777 39.3633ZM27.3438 44.5312V47.6562C27.3438 48.2779 27.0968 48.874 26.6573 49.3135C26.2177 49.7531 25.6216 50 25 50C24.3784 50 23.7823 49.7531 23.3427 49.3135C22.9032 48.874 22.6562 48.2779 22.6562 47.6562V44.5312C22.6562 43.9096 22.9032 43.3135 23.3427 42.874C23.7823 42.4344 24.3784 42.1875 25 42.1875C25.6216 42.1875 26.2177 42.4344 26.6573 42.874C27.0968 43.3135 27.3438 43.9096 27.3438 44.5312ZM12.8467 37.1535C13.2862 37.593 13.5331 38.1892 13.5331 38.8107C13.5331 39.4323 13.2862 40.0284 12.8467 40.468L10.6367 42.6777C10.4197 42.8983 10.1612 43.0737 9.87612 43.1938C9.59101 43.314 9.28493 43.3765 8.97554 43.3777C8.66615 43.379 8.35957 43.319 8.07349 43.2012C7.78741 43.0834 7.52749 42.9101 7.30871 42.6913C7.08994 42.4725 6.91665 42.2126 6.79883 41.9265C6.68101 41.6404 6.62101 41.3339 6.62227 41.0245C6.62353 40.7151 6.68603 40.409 6.80617 40.1239C6.92631 39.8388 7.10172 39.5803 7.32227 39.3633L9.53184 37.1535C9.97137 36.714 10.5675 36.4671 11.1891 36.4671C11.8106 36.4671 12.4068 36.714 12.8463 37.1535H12.8467ZM5.46875 27.3438H2.34375C1.72215 27.3438 1.12601 27.0968 0.686468 26.6573C0.24693 26.2177 0 25.6216 0 25C0 24.3784 0.24693 23.7823 0.686468 23.3427C1.12601 22.9032 1.72215 22.6562 2.34375 22.6562H5.46875C6.09035 22.6562 6.68649 22.9032 7.12603 23.3427C7.56557 23.7823 7.8125 24.3784 7.8125 25C7.8125 25.6216 7.56557 26.2177 7.12603 26.6573C6.68649 27.0968 6.09035 27.3438 5.46875 27.3438ZM7.32227 10.6367C7.10172 10.4197 6.92631 10.1612 6.80617 9.87612C6.68603 9.59101 6.62353 9.28493 6.62227 8.97554C6.62101 8.66615 6.68101 8.35957 6.79883 8.07349C6.91665 7.78741 7.08994 7.52749 7.30871 7.30871C7.52749 7.08994 7.78741 6.91665 8.07349 6.79883C8.35957 6.68101 8.66615 6.62101 8.97554 6.62227C9.28493 6.62353 9.59101 6.68603 9.87612 6.80617C10.1612 6.92631 10.4197 7.10172 10.6367 7.32227L12.8467 9.53203C13.2803 9.97278 13.5222 10.567 13.5197 11.1853C13.5172 11.8036 13.2704 12.3958 12.8332 12.833C12.396 13.2702 11.8038 13.517 11.1855 13.5195C10.5672 13.522 9.97297 13.2801 9.53223 12.8465L7.32227 10.6367Z" fill="white"/>
</svg>
