<svg width="50" height="73" viewBox="0 0 50 73" fill="none" xmlns="http://www.w3.org/2000/svg">
<g clip-path="url(#clip0_91_883)">
<path d="M27.7778 0C25.8681 0 24.2332 0.679977 22.8733 2.03993C21.5133 3.39988 20.8333 5.03472 20.8333 6.94444C20.8333 8.85417 21.5133 10.489 22.8733 11.849C24.2332 13.2089 25.8681 13.8889 27.7778 13.8889C29.6875 13.8889 31.3223 13.2089 32.6823 11.849C34.0422 10.489 34.7222 8.85417 34.7222 6.94444C34.7222 5.03472 34.0422 3.39988 32.6823 2.03993C31.3223 0.679977 29.6875 0 27.7778 0ZM11.9358 70.1389L19.2708 58.1163C20.081 56.7853 20.6887 55.4543 21.0938 54.1233L23.6111 45.7899L31.2066 53.7326L37.8472 69.6615C38.1655 70.4427 38.6646 71.0648 39.3446 71.5278C40.0246 71.9907 40.7986 72.2222 41.6667 72.2222C42.8241 72.2222 43.8079 71.8171 44.6181 71.0069C45.4282 70.1968 45.8333 69.213 45.8333 68.0555C45.8333 67.5637 45.7321 67.0428 45.5295 66.493L39.4531 51.5191C39.077 50.5642 38.7804 49.9204 38.5634 49.5877C38.3464 49.2549 37.8617 48.6834 37.1094 47.8733L28.559 38.6719L31.1632 26.4323L33.5938 31.1632C34.0567 32.147 34.6933 32.8559 35.5035 33.2899C35.6771 33.3767 38.6719 34.8958 44.4878 37.8472C45.8767 38.5417 46.7882 38.8889 47.2222 38.8889C48.0324 38.8889 48.6979 38.6285 49.2188 38.1076C49.7396 37.5868 50 36.9213 50 36.1111C50 34.9248 49.4502 34.0422 48.3507 33.4635L38.4115 28.1684L34.5052 19.2274C33.7818 17.636 32.827 16.7679 31.6406 16.6233L21.7014 15.4948C20.7755 15.408 19.5312 15.6829 17.9688 16.3194L7.46528 20.4861C6.88657 20.7176 6.32234 21.1082 5.77257 21.658C5.2228 22.2078 4.86111 22.772 4.6875 23.3507C2.40162 29.2535 0.896991 33.1887 0.173611 35.1562C0.0578704 35.4167 0 35.735 0 36.1111C0 36.8634 0.274884 37.5145 0.824653 38.0642C1.37442 38.614 2.02546 38.8889 2.77778 38.8889C3.35648 38.8889 3.94242 38.7514 4.53559 38.4766C5.12876 38.2017 5.51215 37.8472 5.68576 37.4132L10.1128 25.7812L19.2274 22.3524L12.8472 52.1701L4.6875 66.059C4.34028 66.7245 4.16667 67.39 4.16667 68.0555C4.16667 69.213 4.57176 70.1968 5.38194 71.0069C6.19213 71.8171 7.17593 72.2222 8.33333 72.2222C9.89583 72.2222 11.0966 71.5278 11.9358 70.1389Z" fill="black"/>
</g>
<defs>
<clipPath id="clip0_91_883">
<rect width="50" height="72.2222" fill="white"/>
</clipPath>
</defs>
</svg>
